<svg xmlns="http://www.w3.org/2000/svg" viewBox="0 0 40 40"><title>icon_common</title><path d="M23.9,7h-7A6.21,6.21,0,0,0,11,13.29V13h0c0,5,0,10.31,0,15.31V29h0a5.75,5.75,0,0,0,6,5h7.08A5.65,5.65,0,0,0,30,29h0V13.23A5.86,5.86,0,0,0,23.9,7ZM26,13.24v15a2.06,2.06,0,0,1-.7,1.47,2,2,0,0,1-1.3.46H17a1.92,1.92,0,0,1-1.54-.54,2.36,2.36,0,0,1-.5-1.35C14.83,27,14.83,21,15,13h0a2.26,2.26,0,0,1,.72-1.3,1.86,1.86,0,0,1,1.3-.39c2.38,0,4.75,0,7.13,0a2.09,2.09,0,0,1,1.17.48A2,2,0,0,1,26,13.23h0Z"/><circle cx="20.5" cy="16.23" r="2.1"/></svg>