<svg id="Слой_11" data-name="Слой 11" xmlns="http://www.w3.org/2000/svg" viewBox="0 0 185 75"><title>category</title><path d="M171.6,65.83c0.66-8.22-7-15.68-8.39-17-1.27,1.16-9.46,8.8-8.78,17a9.39,9.39,0,0,0,2,5.52A9.11,9.11,0,0,0,163,74.42a8.92,8.92,0,0,0,6.46-2.8A9.37,9.37,0,0,0,171.6,65.83Z"/><path d="M24,55.06q-6.52-5.52-6.92-16.16-0.08-2.16-.08-7t0.08-7.2q0.4-10.4,7-16T42,3A33.28,33.28,0,0,1,54.76,5.3,20.62,20.62,0,0,1,63.68,12a17.75,17.75,0,0,1,3.44,10.4,1.57,1.57,0,0,1-.52,1.2,1.77,1.77,0,0,1-1.24.48H54a2.51,2.51,0,0,1-1.64-.44A3.67,3.67,0,0,1,51.44,22Q50.32,18.1,48,16.54A10.52,10.52,0,0,0,42,15q-9,0-9.36,10.08-0.08,2.16-.08,6.64t0.08,6.8Q33,48.58,42,48.58A10.54,10.54,0,0,0,48,47a9.13,9.13,0,0,0,3.4-5.44,3,3,0,0,1,.88-1.64A2.69,2.69,0,0,1,54,39.46H65.36a1.77,1.77,0,0,1,1.24.48,1.57,1.57,0,0,1,.52,1.2,17.75,17.75,0,0,1-3.44,10.4,20.61,20.61,0,0,1-8.92,6.72A33.3,33.3,0,0,1,42,60.58Q30.56,60.58,24,55.06Z"/><path d="M81,55.06q-6.56-5.52-7-16.24-0.08-2.24-.08-6.88T74,25Q74.32,14.42,81,8.7T98.88,3Q110,3,116.68,8.7t7,16.28q0.16,4.64.16,7t-0.16,6.88q-0.4,10.72-6.92,16.24T98.88,60.58Q87.52,60.58,81,55.06Zm24.56-9q2.48-2.52,2.64-7.72,0.16-4.64.16-6.64t-0.16-6.48Q108,20,105.52,17.5A8.89,8.89,0,0,0,98.88,15a9,9,0,0,0-6.72,2.52Q89.68,20,89.52,25.22q-0.08,2.24-.08,6.48t0.08,6.64q0.16,5.2,2.64,7.72a9,9,0,0,0,6.72,2.52A8.9,8.9,0,0,0,105.52,46.06Z"/><path d="M127.55,62.13a0.72,0.72,0,0,1-.22-0.53V59.36a1.85,1.85,0,0,1,.75-1.5l2.79-2.73q2.85-2.16,4.31-3.36a14.89,14.89,0,0,0,2.22-2.17,3.05,3.05,0,0,0,.76-1.85,2,2,0,0,0-2.22-2.22,2.29,2.29,0,0,0-1.8.71A3.64,3.64,0,0,0,133.3,48a0.92,0.92,0,0,1-1,.69h-4a0.64,0.64,0,0,1-.46-0.2,0.6,0.6,0,0,1-.2-0.43,6.87,6.87,0,0,1,1.1-3.58,7.27,7.27,0,0,1,2.89-2.55,9.35,9.35,0,0,1,4.29-.94,10.69,10.69,0,0,1,4.35.81,5.91,5.91,0,0,1,3.72,5.7,6.25,6.25,0,0,1-1.33,3.9,20.92,20.92,0,0,1-4.07,3.78l-2.49,2.49h7.59a0.72,0.72,0,0,1,.75.75v3.21a0.75,0.75,0,0,1-.21.53,0.71,0.71,0,0,1-.54.22H128.08A0.72,0.72,0,0,1,127.55,62.13Z"/></svg>