<svg id="Слой_13" data-name="Слой 13" xmlns="http://www.w3.org/2000/svg" viewBox="0 0 185 75"><defs><style>.cls-1{fill:none;stroke:#000;stroke-miterlimit:10;}</style></defs><title>category</title><path d="M97.83,18.44l-0.39-1.19A20.71,20.71,0,0,1,95,16.91L90.11,18.5l1,3.16L96,20.07Z"/><path d="M90,18.42l1.06,3.24L77.17,26.22a1.28,1.28,0,0,0-.81.6,1.3,1.3,0,0,0,.19,1.45L88,63l-3.65,1.19-12-36.6a3.41,3.41,0,0,1,.21-2.54,3.68,3.68,0,0,1,2.73-1.85Z"/><rect x="88.35" y="17.9" width="3.42" height="4.78" transform="translate(-1.89 28.51) rotate(-17.8)"/><path class="cls-1" d="M111.66,14.74a6.75,6.75,0,0,0,1.08-3.08l-5.5.5,0.42-2A13,13,0,0,0,104,11.41c-3,1.57-6.09,4.73-5.42,6.17s4.52,0.76,6.17.5C106.95,17.73,110,17.25,111.66,14.74Z"/><rect x="75.22" y="31.46" width="6.52" height="18" transform="translate(-8.61 25.93) rotate(-17.8)"/><rect x="75.4" y="32.8" width="11.41" height="31.66" transform="translate(-10.99 27.13) rotate(-17.8)"/><rect x="68.42" y="21.73" width="11.68" height="7.26" transform="translate(-4.2 23.92) rotate(-17.8)"/><rect x="67.5" y="24.42" width="6.17" height="4.24" transform="matrix(0.95, -0.31, 0.31, 0.95, -4.73, 22.85)"/></svg>