<svg id="Слой_11" data-name="Слой 11" xmlns="http://www.w3.org/2000/svg" viewBox="0 0 185 75"><title>category</title><path d="M69.5,59.18a1.92,1.92,0,0,1-.6-1.4V5.86a2.08,2.08,0,0,1,.56-1.48,1.87,1.87,0,0,1,1.44-.6h9A2.93,2.93,0,0,1,82.66,5.3l18.88,29.84V5.86a2.09,2.09,0,0,1,.56-1.48,1.88,1.88,0,0,1,1.44-.6H113.7a1.88,1.88,0,0,1,1.44.6,2.09,2.09,0,0,1,.56,1.48V57.7a2.09,2.09,0,0,1-.56,1.48,1.88,1.88,0,0,1-1.44.6h-9a2.92,2.92,0,0,1-2.72-1.52L83.14,29.62V57.78a1.88,1.88,0,0,1-.6,1.44,2.09,2.09,0,0,1-1.48.56H70.9A1.92,1.92,0,0,1,69.5,59.18Z"/></svg>