<svg id="Слой_13" data-name="Слой 13" xmlns="http://www.w3.org/2000/svg" viewBox="0 0 185 75"><title>category</title><rect x="60.92" y="9" width="63.17" height="7.03"/><rect x="60.92" y="59" width="63.17" height="7"/><path d="M117.21,58H67.79a3,3,0,0,1,0-4.2h49.42A3.18,3.18,0,0,1,117.21,58Z"/><path d="M117.21,52.86H67.79a3,3,0,0,1,0-4.2h49.42A3.18,3.18,0,0,1,117.21,52.86Z"/><path d="M117.21,47.78H67.79a3,3,0,0,1,0-4.2h49.42A3.18,3.18,0,0,1,117.21,47.78Z"/><path d="M117.21,42.53H67.79a3,3,0,0,1,0-4.2h49.42A3.18,3.18,0,0,1,117.21,42.53Z"/><path d="M117.25,37H67.83a3,3,0,0,1,0-4.2h49.42A3.18,3.18,0,0,1,117.25,37Z"/><path d="M117.25,31.9H67.83a3,3,0,0,1,0-4.2h49.42A3.18,3.18,0,0,1,117.25,31.9Z"/><path d="M117.25,26.53H67.83a3,3,0,0,1,0-4.2h49.42A3.18,3.18,0,0,1,117.25,26.53Z"/><path d="M117.25,21.28H67.83a3,3,0,0,1,0-4.2h49.42A3.18,3.18,0,0,1,117.25,21.28Z"/></svg>