<svg id="Слой_11" data-name="Слой 11" xmlns="http://www.w3.org/2000/svg" viewBox="0 0 185 75"><title>category</title><path d="M36.39,55.06q-6.52-5.52-6.92-16.16-0.08-2.16-.08-7t0.08-7.2q0.4-10.4,7-16T54.36,3A33.28,33.28,0,0,1,67.12,5.3,20.62,20.62,0,0,1,76,12a17.75,17.75,0,0,1,3.44,10.4,1.57,1.57,0,0,1-.52,1.2,1.77,1.77,0,0,1-1.24.48H66.36a2.51,2.51,0,0,1-1.64-.44A3.67,3.67,0,0,1,63.79,22q-1.12-3.92-3.4-5.48a10.52,10.52,0,0,0-6-1.56q-9,0-9.36,10.08-0.08,2.16-.08,6.64T45,38.5q0.32,10.08,9.36,10.08a10.54,10.54,0,0,0,6-1.6,9.13,9.13,0,0,0,3.4-5.44,3,3,0,0,1,.88-1.64,2.69,2.69,0,0,1,1.68-.44H77.71a1.77,1.77,0,0,1,1.24.48,1.57,1.57,0,0,1,.52,1.2A17.75,17.75,0,0,1,76,51.54a20.61,20.61,0,0,1-8.92,6.72,33.3,33.3,0,0,1-12.76,2.32Q42.92,60.58,36.39,55.06Z"/><path d="M93.31,55.06q-6.56-5.52-7-16.24-0.08-2.24-.08-6.88t0.08-7q0.32-10.56,7-16.28T111.23,3Q122.36,3,129,8.7T136,25q0.16,4.64.16,7T136,38.82q-0.4,10.72-6.92,16.24t-17.88,5.52Q99.88,60.58,93.31,55.06Zm24.56-9q2.48-2.52,2.64-7.72,0.16-4.64.16-6.64t-0.16-6.48q-0.16-5.2-2.64-7.72A8.89,8.89,0,0,0,111.23,15a9,9,0,0,0-6.72,2.52Q102,20,101.88,25.22q-0.08,2.24-.08,6.48t0.08,6.64q0.16,5.2,2.64,7.72a9,9,0,0,0,6.72,2.52A8.9,8.9,0,0,0,117.88,46.06Z"/><path d="M139.91,62.13a0.72,0.72,0,0,1-.22-0.53V59.36a1.85,1.85,0,0,1,.75-1.5l2.79-2.73q2.85-2.16,4.31-3.36a14.89,14.89,0,0,0,2.22-2.17,3.05,3.05,0,0,0,.76-1.85,2,2,0,0,0-2.22-2.22,2.29,2.29,0,0,0-1.8.71,3.64,3.64,0,0,0-.84,1.75,0.92,0.92,0,0,1-1,.69h-4a0.64,0.64,0,0,1-.46-0.2A0.6,0.6,0,0,1,140,48a6.87,6.87,0,0,1,1.1-3.58A7.27,7.27,0,0,1,144,41.91a9.35,9.35,0,0,1,4.29-.94,10.69,10.69,0,0,1,4.35.81,5.91,5.91,0,0,1,3.72,5.7,6.25,6.25,0,0,1-1.33,3.9A20.92,20.92,0,0,1,151,55.16l-2.49,2.49h7.59a0.72,0.72,0,0,1,.75.75v3.21a0.75,0.75,0,0,1-.21.53,0.71,0.71,0,0,1-.54.22H140.44A0.72,0.72,0,0,1,139.91,62.13Z"/></svg>