<svg id="Слой_9" data-name="Слой 9" xmlns="http://www.w3.org/2000/svg" viewBox="0 0 185 75"><defs><style>.cls-1{fill:none;stroke:#000;stroke-miterlimit:10;stroke-width:2px;}.cls-2{opacity:0.9;}</style></defs><title>category</title><circle class="cls-1" cx="94.1" cy="45.53" r="17.42"/><circle cx="94.1" cy="45.53" r="4.13"/><rect x="92.41" y="16.65" width="4.19" height="57.37" rx="2.1" ry="2.1" transform="translate(97.67 -59.43) rotate(66.1)"/><rect x="90.85" y="66.4" width="6.49" height="4.73"/><rect x="91.73" y="62.79" width="4.73" height="4.73"/><rect x="108.62" y="54.92" width="4.05" height="8.53" transform="translate(-5.44 106.83) rotate(-50.46)"/><rect x="63.65" y="44.23" width="13.28" height="6.98" transform="translate(-3.97 6.45) rotate(-5.11)"/><rect x="59.1" y="43.56" width="4.58" height="9.9" transform="translate(-4.08 5.66) rotate(-5.11)"/><rect x="58.56" y="41.61" width="4.58" height="2.15" transform="translate(-3.56 5.59) rotate(-5.11)"/><rect x="59.62" y="53.25" width="4.58" height="2.15" transform="translate(-4.59 5.73) rotate(-5.11)"/><circle class="cls-1" cx="113.85" cy="16.86" r="12.68"/><circle cx="113.85" cy="16.86" r="1.55"/><path class="cls-2" d="M120.8,12.44l0.44-1-1.11.07-6.86,5,0.67,0.92Z"/><path class="cls-2" d="M111.52,24.15L111.77,25l0.69-.66,1.71-7.05-0.94-.23Z"/><rect x="103.48" y="27.64" width="7.05" height="2.26" transform="matrix(0.87, 0.5, -0.5, 0.87, 28.72, -49.65)"/><path d="M108.38,30.21l-3.17-1.83L103.73,31l2.92,2.33Z"/><circle class="cls-1" cx="75.2" cy="16.55" r="12.68"/><circle cx="75.2" cy="16.55" r="1.55"/><path class="cls-2" d="M68.24,12.12l-0.44-1,1.11,0.07,6.86,5-0.67.92Z"/><path class="cls-2" d="M77.52,23.84l-0.26.89-0.69-.66L74.87,17l0.94-.23Z"/><rect x="78.51" y="27.32" width="7.05" height="2.26" transform="translate(167.31 12.07) rotate(150)"/><path d="M80.66,29.9l3.17-1.83,1.49,2.57L82.4,33Z"/></svg>