<svg id="Слой_11" data-name="Слой 11" xmlns="http://www.w3.org/2000/svg" viewBox="0 0 185 75"><title>category</title><path d="M61.12,59.18a1.91,1.91,0,0,1-.6-1.4V5.86a2.09,2.09,0,0,1,.56-1.48,1.88,1.88,0,0,1,1.44-.6h9A2.93,2.93,0,0,1,74.28,5.3L93.16,35.14V5.86a2.09,2.09,0,0,1,.56-1.48,1.88,1.88,0,0,1,1.44-.6h10.16a1.88,1.88,0,0,1,1.44.6,2.09,2.09,0,0,1,.56,1.48V57.7a2.09,2.09,0,0,1-.56,1.48,1.88,1.88,0,0,1-1.44.6h-9a2.93,2.93,0,0,1-2.72-1.52L74.76,29.62V57.78a1.88,1.88,0,0,1-.6,1.44,2.09,2.09,0,0,1-1.48.56H62.52A1.92,1.92,0,0,1,61.12,59.18Z"/><path d="M129.88,65.19c0.66-8.22-7-15.68-8.39-17-1.27,1.16-9.46,8.8-8.78,17a9.39,9.39,0,0,0,2,5.52,9.11,9.11,0,0,0,6.59,3.06,8.92,8.92,0,0,0,6.46-2.8A9.37,9.37,0,0,0,129.88,65.19Z"/></svg>