<svg id="Слой_13" data-name="Слой 13" xmlns="http://www.w3.org/2000/svg" viewBox="0 0 185 75"><title>category</title><path d="M90.17,26.12A6.91,6.91,0,1,0,83.1,14.29c0-.16,0-0.32,0-0.49a6.91,6.91,0,1,0-13.83,0c0,0.12,0,.24,0,0.37A6.91,6.91,0,1,0,62.23,26a6.91,6.91,0,1,0,7.08,11.86c0,0.07,0,.15,0,0.22a6.91,6.91,0,1,0,13.83,0s0-.07,0-0.1A6.91,6.91,0,1,0,90.17,26.12Zm-3.1-11.41a5.24,5.24,0,1,1-5.24,5.24A5.24,5.24,0,0,1,87.08,14.71ZM76.21,8.56A5.24,5.24,0,1,1,71,13.8,5.24,5.24,0,0,1,76.21,8.56ZM60.29,19.94a5.24,5.24,0,1,1,5.24,5.24A5.24,5.24,0,0,1,60.29,19.94Zm5.24,17.39a5.24,5.24,0,1,1,5.24-5.24A5.24,5.24,0,0,1,65.53,37.33Zm10.69,6A5.24,5.24,0,1,1,80.46,35,6.9,6.9,0,0,0,81,36,5.24,5.24,0,0,1,76.21,43.34Zm10.49-6a5.23,5.23,0,0,1-4.25-2.18,6.9,6.9,0,0,0-.56-1A5.24,5.24,0,1,1,86.71,37.33Z"/><path d="M108.76,32.87a17.63,17.63,0,1,0,17.63,17.63A17.63,17.63,0,0,0,108.76,32.87Zm0,31.25a13.63,13.63,0,1,1,13.63-13.63A13.63,13.63,0,0,1,108.76,64.12Z"/><circle cx="108.76" cy="50.49" r="3.31"/><rect x="107.97" y="35.95" width="1.58" height="29.33"/><rect x="107.97" y="35.95" width="1.58" height="29.33" transform="matrix(0.5, -0.87, 0.87, 0.5, 10.55, 119.5)"/><rect x="107.97" y="35.95" width="1.58" height="29.33" transform="translate(119.31 170.11) rotate(-120)"/></svg>