<svg id="Слой_13" data-name="Слой 13" xmlns="http://www.w3.org/2000/svg" viewBox="0 0 185 75"><title>category</title><path d="M82.56,47.89l8.81-18a3.44,3.44,0,0,0-1.55-4.61l-0.32-.17a3.44,3.44,0,0,0-4.58,1.6l-1.82,3.8a2.72,2.72,0,0,1-2,.85,3.12,3.12,0,0,1-2.46-2.69l-0.08-.71a4.69,4.69,0,0,1,0-.53H78.48l-2-16.74A3,3,0,0,0,73.16,8a3.23,3.23,0,0,0-2.86,3.4l1.54,14.85L69.18,9.84a3,3,0,1,0-5.92,1L66,28c-0.88-5.46-2.27-10.8-3.44-16.15A3,3,0,0,0,59,9.51a3,3,0,0,0-2.25,3.63c1.38,5.53,2.27,10.26,2.83,14L57.24,16.52a3,3,0,0,0-3.63-2.29,3.23,3.23,0,0,0-2.25,3.82c1.75,8.53,3.49,16.95,5.3,25.77l-0.2,0,2.24,13.82-1,.16,1.6,9.87L86,63.4l-1.6-9.87-2,.32-0.8-4.92A1.24,1.24,0,0,0,82.56,47.89Z"/><path d="M102.44,47.89l-8.81-18a3.44,3.44,0,0,1,1.55-4.61l0.32-.17a3.44,3.44,0,0,1,4.58,1.6l1.82,3.8a2.72,2.72,0,0,0,2,.85,3.12,3.12,0,0,0,2.46-2.69l0.08-.71a4.69,4.69,0,0,0,0-.53h0.06l2-16.74A3,3,0,0,1,111.84,8a3.23,3.23,0,0,1,2.86,3.4l-1.54,14.85,2.65-16.38a3,3,0,1,1,5.92,1L119,28c0.88-5.46,2.27-10.8,3.44-16.15A3,3,0,0,1,126,9.51a3,3,0,0,1,2.25,3.63c-1.38,5.53-2.27,10.26-2.83,14l2.39-10.58a3,3,0,0,1,3.63-2.29,3.23,3.23,0,0,1,2.25,3.82c-1.75,8.53-3.49,16.95-5.3,25.77l0.2,0-2.24,13.82,1,0.16-1.6,9.87L99,63.4l1.6-9.87,2,0.32,0.8-4.92A1.24,1.24,0,0,1,102.44,47.89Z"/></svg>