<svg id="Слой_9" data-name="Слой 9" xmlns="http://www.w3.org/2000/svg" viewBox="0 0 185 75"><defs><style>.cls-1,.cls-2,.cls-3,.cls-4,.cls-5,.cls-6{fill:none;stroke:#000;stroke-miterlimit:10;}.cls-1{stroke-width:0.85px;}.cls-2{stroke-width:0.65px;}.cls-3{stroke-width:0.65px;}.cls-4{stroke-width:0.5px;}.cls-5{stroke-width:0.66px;}.cls-6{stroke-width:0.5px;}</style></defs><title>category</title><path d="M70.75,63.67a29.28,29.28,0,0,1-7.42-2.33c-3.55-1.67-4.72-3.1-7.17-3.33-1.67-.16-4.22.21-7.58,3.08L71.88,7.6a11.56,11.56,0,0,0,.73,1.95c2.84,5.87,11,9.73,16.93,7.65a9.75,9.75,0,0,0,2-1Z"/><path class="cls-1" d="M72.1,9.4a2.42,2.42,0,0,1,.16-1.87c1.32-2.09,7.29-.74,11.1.91,3.37,1.47,8.66,4.74,8.07,7.29a3.17,3.17,0,0,1-2,1.89"/><path class="cls-2" d="M74.45,11.09a1.39,1.39,0,0,1-.55-1.14c0.38-1,4.82-.86,8.47.7C85.77,12.1,89,15,88.52,16.21c-0.2.47-.92,0.57-1.86,0.68a12,12,0,0,1-6.87-1.56A16.31,16.31,0,0,1,74.45,11.09Z"/><circle cx="74.1" cy="8.11" r="0.43" transform="translate(36.93 72.72) rotate(-66.34)"/><circle cx="76.36" cy="8.01" r="0.43" transform="translate(38.37 74.73) rotate(-66.34)"/><circle cx="78.55" cy="8.3" r="0.43" transform="translate(39.42 76.92) rotate(-66.34)"/><circle cx="80.73" cy="8.87" r="0.43" transform="translate(40.21 79.25) rotate(-66.34)"/><circle cx="82.74" cy="9.59" r="0.43" transform="translate(40.75 81.52) rotate(-66.34)"/><circle cx="84.58" cy="10.48" r="0.43" transform="translate(41.03 83.75) rotate(-66.34)"/><circle cx="86.42" cy="11.66" r="0.43" transform="translate(41.05 86.13) rotate(-66.34)"/><circle cx="88.14" cy="13.04" r="0.43" transform="translate(40.82 88.53) rotate(-66.34)"/><circle cx="89.43" cy="14.54" r="0.43" transform="translate(40.22 90.61) rotate(-66.34)"/><path d="M90.79,68.54A16.09,16.09,0,0,1,85,68c-3.27-.93-4.46-2.45-6.92-2.42a7.86,7.86,0,0,0-5.17,2.33L88.43,32.8A8.89,8.89,0,0,0,89,34.3c2.18,4.51,8.42,7.47,13,5.88a7.49,7.49,0,0,0,1.55-.75Z"/><path class="cls-3" d="M88.6,34.18a1.86,1.86,0,0,1,.12-1.43c1-1.61,5.6-.57,8.52.7,2.59,1.13,6.65,3.64,6.2,5.6a2.43,2.43,0,0,1-1.5,1.45"/><path class="cls-4" d="M90.41,35.48A1.06,1.06,0,0,1,90,34.6c0.29-.81,3.7-0.66,6.5.54,2.62,1.12,5.12,3.35,4.73,4.27a1.71,1.71,0,0,1-1.43.52,9.23,9.23,0,0,1-5.27-1.2A12.52,12.52,0,0,1,90.41,35.48Z"/><circle cx="90.14" cy="33.19" r="0.33" transform="translate(23.56 102.43) rotate(-66.34)"/><circle cx="91.87" cy="33.12" r="0.33" transform="translate(24.67 103.97) rotate(-66.34)"/><circle cx="93.56" cy="33.34" r="0.33" transform="translate(25.47 105.65) rotate(-66.34)"/><circle cx="95.23" cy="33.78" r="0.33" transform="translate(26.07 107.44) rotate(-66.34)"/><circle cx="96.77" cy="34.33" r="0.33" transform="translate(26.49 109.19) rotate(-66.34)"/><circle cx="98.19" cy="35.02" r="0.33" transform="translate(26.71 110.9) rotate(-66.34)"/><circle cx="99.6" cy="35.92" r="0.33" transform="translate(26.72 112.73) rotate(-66.34)"/><circle cx="100.92" cy="36.98" r="0.33" transform="translate(26.54 114.57) rotate(-66.34)"/><circle cx="101.91" cy="38.13" r="0.33" transform="translate(26.08 116.17) rotate(-66.34)"/><path d="M114.67,63.67a12.62,12.62,0,0,1-5.83,1.08c-3.42-.22-4.83-1.88-7.58-1.67-1.44.11-3.45,0.74-5.75,3.17l19-43.46A9,9,0,0,0,115,24.3c2.2,4.55,8.5,7.55,13.13,5.94a7.56,7.56,0,0,0,1.56-.76Z"/><path class="cls-5" d="M114.63,24.19a1.88,1.88,0,0,1,.12-1.45c1-1.62,5.65-.58,8.61.71,2.62,1.14,6.72,3.67,6.26,5.66a2.46,2.46,0,0,1-1.51,1.47"/><path class="cls-6" d="M116.46,25.5a1.07,1.07,0,0,1-.43-0.89c0.29-.81,3.74-0.67,6.57.54,2.64,1.13,5.17,3.38,4.78,4.32a1.73,1.73,0,0,1-1.44.53,9.32,9.32,0,0,1-5.33-1.21A12.65,12.65,0,0,1,116.46,25.5Z"/><circle cx="116.18" cy="23.19" r="0.33" transform="translate(48.32 120.29) rotate(-66.34)"/><circle cx="117.94" cy="23.11" r="0.33" transform="translate(49.44 121.86) rotate(-66.34)"/><circle cx="119.64" cy="23.34" r="0.33" transform="translate(50.25 123.55) rotate(-66.34)"/><circle cx="121.33" cy="23.77" r="0.33" transform="translate(50.86 125.36) rotate(-66.34)"/><circle cx="122.89" cy="24.33" r="0.33" transform="translate(51.28 127.12) rotate(-66.34)"/><circle cx="124.32" cy="25.03" r="0.33" transform="translate(51.5 128.85) rotate(-66.34)"/><circle cx="125.74" cy="25.94" r="0.33" transform="translate(51.51 130.7) rotate(-66.34)"/><circle cx="127.07" cy="27.01" r="0.33" transform="translate(51.33 132.56) rotate(-66.34)"/><circle cx="128.08" cy="28.17" r="0.33" transform="translate(50.87 134.17) rotate(-66.34)"/></svg>