<svg id="Слой_13" data-name="Слой 13" xmlns="http://www.w3.org/2000/svg" viewBox="0 0 185 75"><title>category</title><path d="M76.66,15.14L76.14,14a20.71,20.71,0,0,1-2.5-.06L69,16l1.37,3L75,17Z"/><path d="M68.91,16l1.41,3.1L57,25.14a1.28,1.28,0,0,0-.74.69,1.3,1.3,0,0,0,.35,1.42L71.81,60.53l-3.49,1.59L52.4,27.05a3.41,3.41,0,0,1-.07-2.55,3.68,3.68,0,0,1,2.51-2.14Z"/><rect x="67.42" y="15.44" width="3.42" height="4.78" transform="translate(-1.25 29.79) rotate(-24.11)"/><rect x="59.51" y="43.9" width="6.52" height="3.62" transform="translate(-13.2 29.63) rotate(-24.11)"/><rect x="62.93" y="46.62" width="7.47" height="15.49" transform="translate(-16.39 31.97) rotate(-24.11)"/><path d="M109,13.81l-0.22-1.43a23.79,23.79,0,0,1-2.75-.84l-5.79.89,0.58,3.77,5.79-.89Z"/><path d="M100.18,12.34l0.6,3.87L84.14,18.78a1.48,1.48,0,0,0-1,.53A1.5,1.5,0,0,0,83.06,21l6.53,41.54-4.36.67L78.49,19.47a3.92,3.92,0,0,1,.71-2.84A4.22,4.22,0,0,1,82.63,15Z"/><rect x="97.89" y="11.72" width="3.93" height="5.5" transform="translate(-1.04 14.84) rotate(-8.45)"/><rect x="80.43" y="41.25" width="7.49" height="4.16" transform="translate(-5.46 12.85) rotate(-8.45)"/><rect x="81.51" y="45.22" width="8.58" height="17.79" transform="matrix(0.99, -0.15, 0.15, 0.99, -7.02, 13.2)"/><path d="M132.57,28.54l0.31-1.22A20.77,20.77,0,0,1,131,25.7l-5-1.28-0.83,3.23,5,1.28Z"/><path d="M126,24.31l-0.85,3.31L110.91,24a1.29,1.29,0,0,0-1,.07,1.31,1.31,0,0,0-.62,1.33l-9.07,35.57-3.73-1,9.65-37.4a3.42,3.42,0,0,1,1.55-2,3.69,3.69,0,0,1,3.31-.09Z"/><rect x="123.28" y="23.51" width="3.43" height="4.8" transform="translate(10.75 -31.04) rotate(14.78)"/><rect x="99.22" y="41.85" width="6.54" height="3.64" transform="translate(14.53 -24.7) rotate(14.78)"/><rect x="96.33" y="45.1" width="7.49" height="15.53" transform="translate(16.8 -23.78) rotate(14.78)"/></svg>