<svg id="Слой_11" data-name="Слой 11" xmlns="http://www.w3.org/2000/svg" viewBox="0 0 185 75"><title>category</title><path d="M86.17,59.22a1.94,1.94,0,0,1-.56-1.44V5.86a2.08,2.08,0,0,1,.56-1.48,1.88,1.88,0,0,1,1.44-.6h11a2.05,2.05,0,0,1,2.08,2.08v19h18.88v-19a2,2,0,0,1,2.08-2.08h10.88a2.05,2.05,0,0,1,2.08,2.08V57.78a1.88,1.88,0,0,1-.6,1.44,2.08,2.08,0,0,1-1.48.56H121.61a2.08,2.08,0,0,1-1.48-.56,1.88,1.88,0,0,1-.6-1.44V38.18H100.65v19.6a1.88,1.88,0,0,1-.6,1.44,2.08,2.08,0,0,1-1.48.56h-11A1.94,1.94,0,0,1,86.17,59.22Z"/><path d="M137.88,61.41a0.72,0.72,0,0,1-.22-0.53V58.64a1.85,1.85,0,0,1,.75-1.5l2.79-2.73Q144,52.25,145.5,51a14.89,14.89,0,0,0,2.22-2.17,3.05,3.05,0,0,0,.76-1.85,2,2,0,0,0-2.22-2.22,2.29,2.29,0,0,0-1.8.71,3.64,3.64,0,0,0-.84,1.75,0.92,0.92,0,0,1-1,.69h-4a0.64,0.64,0,0,1-.46-0.2,0.6,0.6,0,0,1-.2-0.43,6.87,6.87,0,0,1,1.1-3.58A7.27,7.27,0,0,1,142,41.19a9.35,9.35,0,0,1,4.29-.94,10.69,10.69,0,0,1,4.35.81,5.91,5.91,0,0,1,3.72,5.7,6.25,6.25,0,0,1-1.33,3.9,20.92,20.92,0,0,1-4.07,3.78l-2.49,2.49H154a0.72,0.72,0,0,1,.75.75v3.21a0.75,0.75,0,0,1-.21.53,0.71,0.71,0,0,1-.54.22H138.4A0.72,0.72,0,0,1,137.88,61.41Z"/><path d="M18.26,54.13Q11.74,48.61,11.34,38q-0.08-2.16-.08-7t0.08-7.2q0.4-10.4,7-16T36.22,2A33.28,33.28,0,0,1,49,4.37a20.62,20.62,0,0,1,8.92,6.72,17.75,17.75,0,0,1,3.44,10.4,1.57,1.57,0,0,1-.52,1.2,1.77,1.77,0,0,1-1.24.48H48.22a2.51,2.51,0,0,1-1.64-.44,3.66,3.66,0,0,1-.92-1.64q-1.12-3.92-3.4-5.48a10.52,10.52,0,0,0-6-1.56q-9,0-9.36,10.08-0.08,2.16-.08,6.64t0.08,6.8q0.32,10.08,9.36,10.08a10.54,10.54,0,0,0,6-1.6,9.14,9.14,0,0,0,3.4-5.44A3,3,0,0,1,46.54,39a2.69,2.69,0,0,1,1.68-.44H59.58a1.77,1.77,0,0,1,1.24.48,1.57,1.57,0,0,1,.52,1.2,17.75,17.75,0,0,1-3.44,10.4A20.61,20.61,0,0,1,49,57.33a33.3,33.3,0,0,1-12.76,2.32Q24.78,59.65,18.26,54.13Z"/><path d="M65.29,60.48A0.72,0.72,0,0,1,65.07,60V57.71a1.85,1.85,0,0,1,.75-1.5l2.79-2.73q2.85-2.16,4.31-3.36a14.89,14.89,0,0,0,2.22-2.17,3.05,3.05,0,0,0,.76-1.85,2,2,0,0,0-2.22-2.22,2.29,2.29,0,0,0-1.8.71A3.64,3.64,0,0,0,71,46.34,0.92,0.92,0,0,1,70,47h-4a0.64,0.64,0,0,1-.46-0.2,0.6,0.6,0,0,1-.2-0.43,6.87,6.87,0,0,1,1.1-3.58,7.27,7.27,0,0,1,2.89-2.55,9.35,9.35,0,0,1,4.29-.94,10.69,10.69,0,0,1,4.35.81,5.91,5.91,0,0,1,3.72,5.7,6.25,6.25,0,0,1-1.33,3.9,20.92,20.92,0,0,1-4.07,3.78L73.86,56h7.59a0.72,0.72,0,0,1,.75.75V60a0.75,0.75,0,0,1-.21.53,0.71,0.71,0,0,1-.54.22H65.82A0.72,0.72,0,0,1,65.29,60.48Z"/><path d="M177.38,65.83c0.66-8.22-7-15.68-8.39-17-1.27,1.16-9.46,8.8-8.78,17a9.39,9.39,0,0,0,2,5.52,9.11,9.11,0,0,0,6.59,3.06,8.92,8.92,0,0,0,6.46-2.8A9.37,9.37,0,0,0,177.38,65.83Z"/></svg>