<svg id="Слой_11" data-name="Слой 11" xmlns="http://www.w3.org/2000/svg" viewBox="0 0 185 75"><title>category</title><path d="M49.13,59.22a1.94,1.94,0,0,1-.56-1.44V5.86a2.08,2.08,0,0,1,.56-1.48,1.88,1.88,0,0,1,1.44-.6h11a2.05,2.05,0,0,1,2.08,2.08v19H82.49v-19a2,2,0,0,1,2.08-2.08H95.45a2.05,2.05,0,0,1,2.08,2.08V57.78a1.88,1.88,0,0,1-.6,1.44,2.08,2.08,0,0,1-1.48.56H84.57a2.08,2.08,0,0,1-1.48-.56,1.88,1.88,0,0,1-.6-1.44V38.18H63.61v19.6a1.88,1.88,0,0,1-.6,1.44,2.08,2.08,0,0,1-1.48.56h-11A1.94,1.94,0,0,1,49.13,59.22Z"/><path d="M100.84,61.41a0.72,0.72,0,0,1-.22-0.53V58.64a1.85,1.85,0,0,1,.75-1.5l2.79-2.73Q107,52.25,108.46,51a14.89,14.89,0,0,0,2.22-2.17,3.05,3.05,0,0,0,.76-1.85,2,2,0,0,0-2.22-2.22,2.29,2.29,0,0,0-1.8.71,3.64,3.64,0,0,0-.84,1.75,0.92,0.92,0,0,1-1,.69h-4a0.64,0.64,0,0,1-.46-0.2,0.6,0.6,0,0,1-.2-0.43,6.87,6.87,0,0,1,1.1-3.58,7.27,7.27,0,0,1,2.89-2.55,9.35,9.35,0,0,1,4.29-.94,10.69,10.69,0,0,1,4.35.81,5.91,5.91,0,0,1,3.72,5.7,6.25,6.25,0,0,1-1.33,3.9,20.92,20.92,0,0,1-4.07,3.78l-2.49,2.49H117a0.72,0.72,0,0,1,.75.75v3.21a0.75,0.75,0,0,1-.21.53,0.71,0.71,0,0,1-.54.22H101.36A0.72,0.72,0,0,1,100.84,61.41Z"/><path d="M141.86,57.4c0.24,3.43-3.35,8.24-8.24,8.24s-8.31-4.81-8.24-8.24a4.7,4.7,0,0,1,1.39-3.51,4.4,4.4,0,0,1,3-1,3.24,3.24,0,0,1,3.83-3.75c1,0,2.91,0,3.75,1.42a3.21,3.21,0,0,1,.25,2.42,4,4,0,0,1,2.17.5C141.66,54.58,141.83,57.06,141.86,57.4Z"/><rect x="132.91" y="58.57" width="1.43" height="15.57"/></svg>