<svg id="Слой_11" data-name="Слой 11" xmlns="http://www.w3.org/2000/svg" viewBox="0 0 185 75"><title>category</title><path d="M53.52,55.06q-6.56-5.52-7-16.24-0.08-2.24-.08-6.88t0.08-7q0.32-10.56,7-16.28T71.44,3Q82.56,3,89.24,8.7t7,16.28q0.16,4.64.16,7t-0.16,6.88q-0.4,10.72-6.92,16.24T71.44,60.58Q60.08,60.58,53.52,55.06Zm24.56-9q2.48-2.52,2.64-7.72,0.16-4.64.16-6.64t-0.16-6.48Q80.56,20,78.08,17.5A8.89,8.89,0,0,0,71.44,15a9,9,0,0,0-6.72,2.52Q62.24,20,62.08,25.22,62,27.46,62,31.7t0.08,6.64q0.16,5.2,2.64,7.72a9,9,0,0,0,6.72,2.52A8.9,8.9,0,0,0,78.08,46.06Z"/><path d="M100.51,61.41a0.72,0.72,0,0,1-.22-0.53V58.64a1.85,1.85,0,0,1,.75-1.5l2.79-2.73q2.85-2.16,4.31-3.36a14.89,14.89,0,0,0,2.22-2.17,3.05,3.05,0,0,0,.76-1.85,2,2,0,0,0-2.22-2.22,2.29,2.29,0,0,0-1.8.71,3.64,3.64,0,0,0-.84,1.75,0.92,0.92,0,0,1-1,.69h-4a0.64,0.64,0,0,1-.46-0.2,0.6,0.6,0,0,1-.2-0.43,6.87,6.87,0,0,1,1.1-3.58,7.27,7.27,0,0,1,2.89-2.55,9.35,9.35,0,0,1,4.29-.94,10.69,10.69,0,0,1,4.35.81,5.91,5.91,0,0,1,3.72,5.7,6.25,6.25,0,0,1-1.33,3.9,20.92,20.92,0,0,1-4.07,3.78l-2.49,2.49h7.59a0.72,0.72,0,0,1,.75.75v3.21a0.75,0.75,0,0,1-.21.53,0.71,0.71,0,0,1-.54.22H101A0.72,0.72,0,0,1,100.51,61.41Z"/><path d="M142.19,57.4c0.24,3.43-3.35,8.24-8.24,8.24s-8.31-4.81-8.24-8.24a4.7,4.7,0,0,1,1.39-3.51,4.4,4.4,0,0,1,3-1,3.24,3.24,0,0,1,3.83-3.75c1,0,2.91,0,3.75,1.42a3.21,3.21,0,0,1,.25,2.42,4,4,0,0,1,2.17.5C142,54.58,142.17,57.06,142.19,57.4Z"/><rect x="133.24" y="58.57" width="1.43" height="15.57"/></svg>