<svg id="Слой_11" data-name="Слой 11" xmlns="http://www.w3.org/2000/svg" viewBox="0 0 185 75"><title>category</title><path d="M46.7,59.26a1.6,1.6,0,0,1-.52-1.16,2.42,2.42,0,0,1,.08-0.72L64.9,6.1a3.12,3.12,0,0,1,3.2-2.32H80.58a3.13,3.13,0,0,1,3.2,2.32l18.64,51.28a2.45,2.45,0,0,1,.08.72,1.79,1.79,0,0,1-1.68,1.68H90.42A2.78,2.78,0,0,1,87.7,58l-2.88-7.76h-21L61,58a2.78,2.78,0,0,1-2.72,1.76H47.86A1.6,1.6,0,0,1,46.7,59.26Zm20.52-21H81.46l-7.12-20.4Z"/><path d="M108.7,59.18a1.92,1.92,0,0,1-.6-1.4V20.26a2.08,2.08,0,0,1,.56-1.48,1.88,1.88,0,0,1,1.44-.6h9.76a2.05,2.05,0,0,1,2.08,2.08v3a15.29,15.29,0,0,1,5.24-3.8,16.41,16.41,0,0,1,6.68-1.32h3.6a1.92,1.92,0,0,1,2,2V28.9a2,2,0,0,1-.56,1.4,1.88,1.88,0,0,1-1.44.6h-8.08a6.57,6.57,0,0,0-4.92,1.76,6.8,6.8,0,0,0-1.72,5V57.78a1.88,1.88,0,0,1-.6,1.44,2.08,2.08,0,0,1-1.48.56H110.1A1.92,1.92,0,0,1,108.7,59.18Z"/><path d="M162.92,65.83c0.66-8.22-7-15.68-8.39-17-1.27,1.16-9.46,8.8-8.78,17a9.39,9.39,0,0,0,2,5.52,9.11,9.11,0,0,0,6.59,3.06,8.92,8.92,0,0,0,6.46-2.8A9.37,9.37,0,0,0,162.92,65.83Z"/></svg>