<svg id="Слой_11" data-name="Слой 11" xmlns="http://www.w3.org/2000/svg" viewBox="0 0 185 75"><title>category</title><path d="M65.18,55.06q-6.56-5.52-7-16.24-0.08-2.24-.08-6.88t0.08-7q0.32-10.56,7-16.28T83.1,3Q94.22,3,100.9,8.7t7,16.28q0.16,4.64.16,7t-0.16,6.88Q107.5,49.54,101,55.06T83.1,60.58Q71.74,60.58,65.18,55.06Zm24.56-9q2.48-2.52,2.64-7.72,0.16-4.64.16-6.64t-0.16-6.48Q92.22,20,89.74,17.5A8.9,8.9,0,0,0,83.1,15a9,9,0,0,0-6.72,2.52Q73.9,20,73.74,25.22q-0.08,2.24-.08,6.48t0.08,6.64q0.16,5.2,2.64,7.72a9,9,0,0,0,6.72,2.52A8.9,8.9,0,0,0,89.74,46.06Z"/><path d="M112.17,61.41a0.72,0.72,0,0,1-.22-0.53V58.64a1.85,1.85,0,0,1,.75-1.5l2.79-2.73q2.85-2.16,4.31-3.36A14.89,14.89,0,0,0,122,48.87a3.05,3.05,0,0,0,.76-1.85,2,2,0,0,0-2.22-2.22,2.29,2.29,0,0,0-1.8.71,3.64,3.64,0,0,0-.84,1.75,0.92,0.92,0,0,1-1,.69h-4a0.64,0.64,0,0,1-.46-0.2,0.6,0.6,0,0,1-.2-0.43,6.87,6.87,0,0,1,1.1-3.58,7.27,7.27,0,0,1,2.89-2.55,9.35,9.35,0,0,1,4.29-.94,10.69,10.69,0,0,1,4.35.81,5.91,5.91,0,0,1,3.72,5.7,6.25,6.25,0,0,1-1.33,3.9,20.92,20.92,0,0,1-4.07,3.78l-2.49,2.49h7.59a0.72,0.72,0,0,1,.75.75v3.21a0.75,0.75,0,0,1-.21.53,0.71,0.71,0,0,1-.54.22H112.69A0.72,0.72,0,0,1,112.17,61.41Z"/></svg>