<svg id="Слой_11" data-name="Слой 11" xmlns="http://www.w3.org/2000/svg" viewBox="0 0 185 75"><title>category</title><path d="M60.46,59.22a2,2,0,0,1-.56-1.44V5.86a2.09,2.09,0,0,1,.56-1.48,1.88,1.88,0,0,1,1.44-.6h11a2,2,0,0,1,2.08,2.08v19H93.82v-19A2,2,0,0,1,95.9,3.78h10.88a2,2,0,0,1,2.08,2.08V57.78a1.88,1.88,0,0,1-.6,1.44,2.09,2.09,0,0,1-1.48.56H95.9a2.08,2.08,0,0,1-1.48-.56,1.88,1.88,0,0,1-.6-1.44V38.18H74.94v19.6a1.88,1.88,0,0,1-.6,1.44,2.09,2.09,0,0,1-1.48.56h-11A2,2,0,0,1,60.46,59.22Z"/><path d="M112.17,61.41a0.72,0.72,0,0,1-.22-0.53V58.64a1.85,1.85,0,0,1,.75-1.5l2.79-2.73q2.85-2.16,4.31-3.36A14.89,14.89,0,0,0,122,48.87a3.05,3.05,0,0,0,.76-1.85,2,2,0,0,0-2.22-2.22,2.29,2.29,0,0,0-1.8.71,3.64,3.64,0,0,0-.84,1.75,0.92,0.92,0,0,1-1,.69h-4a0.64,0.64,0,0,1-.46-0.2,0.6,0.6,0,0,1-.2-0.43,6.87,6.87,0,0,1,1.1-3.58,7.27,7.27,0,0,1,2.89-2.55,9.35,9.35,0,0,1,4.29-.94,10.69,10.69,0,0,1,4.35.81,5.91,5.91,0,0,1,3.72,5.7,6.25,6.25,0,0,1-1.33,3.9,20.92,20.92,0,0,1-4.07,3.78l-2.49,2.49h7.59a0.72,0.72,0,0,1,.75.75v3.21a0.75,0.75,0,0,1-.21.53,0.71,0.71,0,0,1-.54.22H112.69A0.72,0.72,0,0,1,112.17,61.41Z"/></svg>