<svg id="Слой_11" data-name="Слой 11" xmlns="http://www.w3.org/2000/svg" viewBox="0 0 185 75"><title>category</title><path d="M171.14,57.1c0.24,3.43-3.35,8.24-8.24,8.24s-8.31-4.81-8.24-8.24a4.7,4.7,0,0,1,1.39-3.51,4.4,4.4,0,0,1,3-1,3.24,3.24,0,0,1,3.83-3.75c1,0,2.91,0,3.75,1.42a3.21,3.21,0,0,1,.25,2.42,4,4,0,0,1,2.17.5C170.94,54.27,171.11,56.75,171.14,57.1Z"/><rect x="162.19" y="58.26" width="1.43" height="15.57"/><path d="M24.53,55.06Q18,49.54,17.61,38.9q-0.08-2.16-.08-7t0.08-7.2q0.4-10.4,7-16T42.49,3A33.28,33.28,0,0,1,55.25,5.3,20.62,20.62,0,0,1,64.17,12a17.75,17.75,0,0,1,3.44,10.4,1.57,1.57,0,0,1-.52,1.2,1.77,1.77,0,0,1-1.24.48H54.49a2.51,2.51,0,0,1-1.64-.44A3.66,3.66,0,0,1,51.93,22q-1.12-3.92-3.4-5.48a10.52,10.52,0,0,0-6-1.56q-9,0-9.36,10.08-0.08,2.16-.08,6.64t0.08,6.8q0.32,10.08,9.36,10.08a10.54,10.54,0,0,0,6-1.6,9.14,9.14,0,0,0,3.4-5.44,3,3,0,0,1,.88-1.64,2.69,2.69,0,0,1,1.68-.44H65.85a1.77,1.77,0,0,1,1.24.48,1.57,1.57,0,0,1,.52,1.2,17.75,17.75,0,0,1-3.44,10.4,20.61,20.61,0,0,1-8.92,6.72,33.3,33.3,0,0,1-12.76,2.32Q31.05,60.58,24.53,55.06Z"/><path d="M81.45,55.06q-6.56-5.52-7-16.24-0.08-2.24-.08-6.88t0.08-7q0.32-10.56,7-16.28T99.37,3q11.12,0,17.8,5.72t7,16.28q0.16,4.64.16,7t-0.16,6.88q-0.4,10.72-6.92,16.24T99.37,60.58Q88,60.58,81.45,55.06Zm24.56-9q2.48-2.52,2.64-7.72,0.16-4.64.16-6.64t-0.16-6.48Q108.49,20,106,17.5A8.9,8.9,0,0,0,99.37,15a9,9,0,0,0-6.72,2.52Q90.17,20,90,25.22q-0.08,2.24-.08,6.48T90,38.34q0.16,5.2,2.64,7.72a9,9,0,0,0,6.72,2.52A8.9,8.9,0,0,0,106,46.06Z"/><path d="M128,62.13a0.72,0.72,0,0,1-.22-0.53V59.36a1.85,1.85,0,0,1,.75-1.5l2.79-2.73q2.85-2.16,4.31-3.36a14.89,14.89,0,0,0,2.22-2.17,3.05,3.05,0,0,0,.76-1.85,2,2,0,0,0-2.22-2.22,2.29,2.29,0,0,0-1.8.71,3.64,3.64,0,0,0-.84,1.75,0.92,0.92,0,0,1-1,.69h-4a0.64,0.64,0,0,1-.46-0.2,0.6,0.6,0,0,1-.2-0.43,6.87,6.87,0,0,1,1.1-3.58,7.27,7.27,0,0,1,2.89-2.55,9.35,9.35,0,0,1,4.29-.94,10.69,10.69,0,0,1,4.35.81,5.91,5.91,0,0,1,3.72,5.7,6.25,6.25,0,0,1-1.33,3.9,20.92,20.92,0,0,1-4.07,3.78l-2.49,2.49h7.59a0.72,0.72,0,0,1,.75.75v3.21a0.75,0.75,0,0,1-.21.53,0.71,0.71,0,0,1-.54.22H128.57A0.72,0.72,0,0,1,128,62.13Z"/></svg>