<svg id="Слой_13" data-name="Слой 13" xmlns="http://www.w3.org/2000/svg" viewBox="0 0 185 75"><title>category</title><path d="M61.37,35.68h0l0-.06a1,1,0,0,1-.6,1.39,0.1,0.1,0,0,1,0,0l0,0L49.63,41.49l0.75,1.85,11.21-4.52a1.44,1.44,0,0,1,1.22.59l69.56-28-1.5-3.71Z"/><path d="M61.53,39.08h0Z"/><path d="M52.37,49.68h0l0-.06a1,1,0,0,1-.6,1.39,0.1,0.1,0,0,1,0,0l0,0L40.63,55.49l0.75,1.85,11.21-4.52a1.44,1.44,0,0,1,1.22.59l69.56-28-1.5-3.71Z"/><path d="M52.53,53.08h0Z"/><path d="M73.37,49.68h0l0-.06a1,1,0,0,1-.6,1.39,0.1,0.1,0,0,1,0,0l0,0L61.63,55.49l0.75,1.85,11.21-4.52a1.44,1.44,0,0,1,1.22.59l69.56-28-1.5-3.71Z"/><path d="M73.53,53.08h0Z"/><path d="M73.37,59.68h0l0-.06a1,1,0,0,1-.6,1.39,0.1,0.1,0,0,1,0,0l0,0L61.63,65.49l0.75,1.85,11.21-4.52a1.44,1.44,0,0,1,1.22.59l69.56-28-1.5-3.71Z"/><path d="M73.53,63.08h0Z"/></svg>