<svg id="Слой_13" data-name="Слой 13" xmlns="http://www.w3.org/2000/svg" viewBox="0 0 185 75"><defs><style>.cls-1,.cls-2{fill:none;stroke:#000;stroke-miterlimit:10;}.cls-1{stroke-width:1.39px;}</style></defs><title>category</title><rect x="84" y="12.69" width="30.33" height="6.67" rx="2.08" ry="2.08"/><rect class="cls-1" x="97.12" y="22.8" width="2.25" height="35.17" transform="translate(138.63 -57.87) rotate(90)"/><rect class="cls-1" x="97.12" y="25.3" width="2.25" height="35.17" transform="translate(141.13 -55.37) rotate(90)"/><rect class="cls-1" x="97.12" y="27.69" width="2.25" height="35.17" transform="translate(143.52 -52.98) rotate(90)"/><rect class="cls-1" x="97.12" y="29.94" width="2.25" height="35.17" transform="translate(145.77 -50.73) rotate(90)"/><rect class="cls-1" x="97.12" y="32.19" width="2.25" height="35.17" transform="translate(148.02 -48.48) rotate(90)"/><rect class="cls-1" x="97.12" y="34.42" width="2.25" height="35.17" transform="translate(150.25 -46.25) rotate(90)"/><rect class="cls-1" x="97.12" y="8.92" width="2.25" height="35.17" transform="translate(124.75 -71.75) rotate(90)"/><rect class="cls-1" x="97.12" y="11.42" width="2.25" height="35.17" transform="translate(127.25 -69.25) rotate(90)"/><rect class="cls-1" x="97.12" y="13.82" width="2.25" height="35.17" transform="translate(129.65 -66.85) rotate(90)"/><rect class="cls-1" x="97.12" y="16.07" width="2.25" height="35.17" transform="translate(131.9 -64.6) rotate(90)"/><rect class="cls-1" x="97.12" y="18.32" width="2.25" height="35.17" transform="translate(134.15 -62.35) rotate(90)"/><rect class="cls-1" x="97.12" y="20.55" width="2.25" height="35.17" transform="translate(136.38 -60.12) rotate(90)"/><rect x="80.04" y="22.16" width="1.25" height="34.5"/><rect x="115.21" y="21.97" width="1.25" height="34.5"/><path class="cls-2" d="M114.85,19.5H73.15A18,18,0,0,0,58,27.5H51.5v24h7V51.22c4,4.24,8.83,7.28,14.65,7.28h41.7A19,19,0,0,0,133.5,39.7v-2A18.42,18.42,0,0,0,114.85,19.5Z"/><circle class="cls-2" cx="63.56" cy="39.13" r="4.56"/><ellipse cx="64.17" cy="30.15" rx="1.67" ry="0.71" transform="translate(-6.12 20.9) rotate(-17.67)"/><ellipse cx="62.98" cy="26.41" rx="1.67" ry="0.71" transform="translate(-4.77 35.03) rotate(-30)"/><ellipse cx="63.88" cy="46.85" rx="0.71" ry="1.67" transform="translate(-0.15 93.5) rotate(-72.33)"/><ellipse cx="62.69" cy="50.58" rx="0.71" ry="1.67" transform="translate(-12.46 79.59) rotate(-60)"/><rect class="cls-2" x="81.63" y="58.69" width="24.75" height="3.63"/><rect x="71.62" y="21.25" width="0.58" height="35.75"/><circle cx="63.56" cy="39.13" r="2.71"/></svg>