<svg id="Слой_13" data-name="Слой 13" xmlns="http://www.w3.org/2000/svg" viewBox="0 0 185 75"><title>category</title><path d="M118.37,27.81c1.15-2.55,1.26-5.44-.56-7.51l-1.52-1.72,5.41-4.78,1.48,1.68,2.28-2-5.52-6.24-2.28,2,1.48,1.68-5.41,4.78-1.31-1.48c-2.84-3.21-8.89-2.77-12.05,0L89.14,24.2l0.11,0.13L61.4,49a7.71,7.71,0,0,0-.66,10.85l5.3,6a7.71,7.71,0,0,0,10.85.66L116,31.9A7.62,7.62,0,0,0,118.37,27.81Z"/><path d="M102.36,53l4.36-3h-3.65A9.08,9.08,0,0,1,120,52l1.67,0a10.81,10.81,0,0,0-20.42-2.12L98,50Z"/><path d="M120.33,54.85c-1.45,1-2.91,2.15-4.36,3.15h3.65a9.23,9.23,0,0,1-8.11,5,9.36,9.36,0,0,1-8.8-7.25c-0.56,0-1.11-.07-1.67-0.08a10.68,10.68,0,0,0,20.42,2.09c1.07,0,2.15,0,3.22,0C123.22,56.76,121.78,55.85,120.33,54.85Z"/></svg>