<svg id="Слой_13" data-name="Слой 13" xmlns="http://www.w3.org/2000/svg" viewBox="0 0 185 75"><title>category</title><path d="M136.11,35.06l-4.43-3.6c-3.43,1.61-6.47,3.54-10.3,4.84l-14.62,18,11.72,9.52,14.62-18Z"/><rect x="107.34" y="57.06" width="12.85" height="1.22" rx="0.61" ry="0.61" transform="translate(26.73 -35.57) rotate(20.09)"/><rect x="106.1" y="58.59" width="12.85" height="1.22" rx="0.61" ry="0.61" transform="translate(27.18 -35.05) rotate(20.09)"/><rect x="104.83" y="60.16" width="12.85" height="1.22" rx="0.61" ry="0.61" transform="translate(27.64 -34.52) rotate(20.09)"/><rect x="103.66" y="61.61" width="12.85" height="1.22" rx="0.61" ry="0.61" transform="translate(28.07 -34.03) rotate(20.09)"/><path d="M111.63,67.94l1.12,0a0.83,0.83,0,0,0,.9-0.51c0.12-.32-0.22-0.46-0.53-0.57l-4.42-1.34Z"/><path d="M115,65.82c0.12-.32-0.21-0.47-0.52-0.59l-10.71-3.66,2.94,2.38L114,66.38A0.94,0.94,0,0,0,115,65.82Z"/><rect x="102.12" y="64.6" width="10.71" height="1.68" transform="translate(65.13 -53.05) rotate(39)"/><path d="M109.48,38.9l-4-3.22c-3.07,1.44-5.78,3.17-9.21,4.32L83.24,56.09,93.72,64.6l13.07-16.09Z"/><rect x="83.76" y="58.56" width="11.49" height="1.09" rx="0.55" ry="0.55" transform="translate(25.75 -27.15) rotate(20.09)"/><rect x="82.66" y="59.93" width="11.49" height="1.09" rx="0.55" ry="0.55" transform="translate(26.15 -26.69) rotate(20.09)"/><rect x="81.52" y="61.33" width="11.49" height="1.09" rx="0.55" ry="0.55" transform="translate(26.56 -26.21) rotate(20.09)"/><rect x="80.47" y="62.63" width="11.49" height="1.09" rx="0.55" ry="0.55" transform="translate(26.95 -25.77) rotate(20.09)"/><path d="M87.59,68.29l1,0a0.75,0.75,0,0,0,.8-0.45c0.1-.28-0.2-0.41-0.48-0.51l-4-1.2Z"/><path d="M90.6,66.39c0.1-.28-0.19-0.42-0.47-0.53l-9.57-3.27,2.63,2.13,6.57,2.18A0.84,0.84,0,0,0,90.6,66.39Z"/><rect x="79.09" y="65.3" width="9.58" height="1.5" transform="translate(60.26 -38.07) rotate(39)"/><path d="M80.63,14.71l-4.22-3.43c-3.27,1.53-6.16,3.38-9.81,4.6L52.68,33l11.16,9.07L77.76,25Z"/><rect x="53.23" y="35.66" width="12.24" height="1.17" rx="0.58" ry="0.58" transform="translate(16.06 -18.18) rotate(20.09)"/><rect x="52.06" y="37.11" width="12.24" height="1.17" rx="0.58" ry="0.58" transform="translate(16.49 -17.69) rotate(20.09)"/><rect x="50.85" y="38.61" width="12.24" height="1.17" rx="0.58" ry="0.58" transform="translate(16.93 -17.18) rotate(20.09)"/><rect x="49.73" y="39.99" width="12.24" height="1.17" rx="0.58" ry="0.58" transform="translate(17.33 -16.71) rotate(20.09)"/><path d="M57.31,46l1.07,0a0.79,0.79,0,0,0,.86-0.48c0.11-.3-0.21-0.44-0.51-0.55l-4.21-1.28Z"/><path d="M60.52,44c0.11-.3-0.2-0.45-0.5-0.56L49.82,40l2.8,2.26,7,2.32A0.89,0.89,0,0,0,60.52,44Z"/><rect x="48.26" y="42.84" width="10.2" height="1.6" transform="translate(39.35 -23.86) rotate(39)"/><path d="M109.76,9.54l-5.17-4.2c-4,1.88-7.55,4.13-12,5.64L75.53,32,89.2,43.08l17.05-21Z"/><rect x="76.2" y="35.21" width="14.99" height="1.43" rx="0.71" ry="0.71" transform="translate(17.43 -26.56) rotate(20.09)"/><rect x="74.76" y="36.98" width="14.99" height="1.43" rx="0.71" ry="0.71" transform="translate(17.95 -25.96) rotate(20.09)"/><rect x="73.28" y="38.81" width="14.99" height="1.43" rx="0.71" ry="0.71" transform="translate(18.49 -25.34) rotate(20.09)"/><rect x="71.91" y="40.5" width="14.99" height="1.43" rx="0.71" ry="0.71" transform="translate(18.99 -24.77) rotate(20.09)"/><path d="M81.2,47.89l1.31,0.05a1,1,0,0,0,1-.59c0.13-.37-0.26-0.54-0.62-0.67l-5.16-1.57Z"/><path d="M85.13,45.42c0.13-.37-0.24-0.55-0.61-0.69L72,40.46l3.43,2.77L84,46.07A1.09,1.09,0,0,0,85.13,45.42Z"/><rect x="70.11" y="44" width="12.49" height="1.96" transform="translate(45.32 -38.03) rotate(39)"/></svg>