<svg data-name="Слой 11" xmlns="http://www.w3.org/2000/svg" viewBox="0 0 185 75"><title>category</title><path d="M59.7 59.18a1.91 1.91 0 0 1-.6-1.4V5.86a2.09 2.09 0 0 1 .56-1.48 1.88 1.88 0 0 1 1.44-.6h9a2.93 2.93 0 0 1 2.76 1.52l18.88 29.84V5.86a2.09 2.09 0 0 1 .56-1.48 1.88 1.88 0 0 1 1.44-.6h10.16a1.88 1.88 0 0 1 1.44.6 2.09 2.09 0 0 1 .56 1.48V57.7a2.09 2.09 0 0 1-.56 1.48 1.88 1.88 0 0 1-1.44.6h-9a2.93 2.93 0 0 1-2.72-1.52L73.33 29.62v28.16a1.88 1.88 0 0 1-.6 1.44 2.09 2.09 0 0 1-1.48.56H61.1a1.92 1.92 0 0 1-1.4-.6zm71.63-1.77c.24 3.43-3.35 8.24-8.24 8.24s-8.31-4.81-8.24-8.24a4.7 4.7 0 0 1 1.39-3.51 4.4 4.4 0 0 1 3-1 3.24 3.24 0 0 1 3.83-3.75c1 0 2.91 0 3.75 1.42a3.21 3.21 0 0 1 .25 2.42 4 4 0 0 1 2.17.5c1.89 1.09 2.07 3.57 2.09 3.92z"/><path d="M122.38 58.57h1.43v15.57h-1.43z"/></svg>