<svg data-name="Слой 11" xmlns="http://www.w3.org/2000/svg" viewBox="0 0 185 75"><title>category</title><path d="M44.3 59.22a1.94 1.94 0 0 1-.56-1.44V5.86a2.08 2.08 0 0 1 .56-1.48 1.88 1.88 0 0 1 1.44-.6h11a2.05 2.05 0 0 1 2.08 2.08v19h18.84v-19a2 2 0 0 1 2.08-2.08h10.88a2.05 2.05 0 0 1 2.08 2.08v51.92a1.88 1.88 0 0 1-.6 1.44 2.08 2.08 0 0 1-1.48.56H79.74a2.08 2.08 0 0 1-1.48-.56 1.88 1.88 0 0 1-.6-1.44v-19.6H58.78v19.6a1.88 1.88 0 0 1-.6 1.44 2.08 2.08 0 0 1-1.48.56h-11a1.94 1.94 0 0 1-1.4-.56zm62.96-3.88q-5.6-5.24-5.76-15.24v-2.48q.32-9.52 5.92-14.88t15.12-5.36a22.86 22.86 0 0 1 11.64 2.76 17.49 17.49 0 0 1 7.12 7.6 24.8 24.8 0 0 1 2.36 11v2a2 2 0 0 1-2.08 2.08h-25.36v.48a10 10 0 0 0 1.68 5.8 5.3 5.3 0 0 0 4.56 2.2 5.53 5.53 0 0 0 3.08-.76 10.67 10.67 0 0 0 2.2-2 4.2 4.2 0 0 1 1.16-1 3.64 3.64 0 0 1 1.4-.2h10.48a1.87 1.87 0 0 1 1.24.44 1.37 1.37 0 0 1 .52 1.08q0 2.08-2.36 4.88a18.69 18.69 0 0 1-6.88 4.8 26.24 26.24 0 0 1-10.68 2q-9.76.04-15.36-5.2zm21.68-20.68v-.16a9.38 9.38 0 0 0-1.68-6 5.68 5.68 0 0 0-4.72-2.12 5.57 5.57 0 0 0-4.68 2.12 9.55 9.55 0 0 0-1.64 6v.16h12.72z"/></svg>