<svg data-name="Слой 11" xmlns="http://www.w3.org/2000/svg" viewBox="0 0 185 75"><title>category</title><path d="M35 59.26a1.6 1.6 0 0 1-.52-1.16 2.42 2.42 0 0 1 .08-.72L53.2 6.1a3.12 3.12 0 0 1 3.2-2.32h12.48a3.13 3.13 0 0 1 3.2 2.32l18.64 51.28a2.45 2.45 0 0 1 .08.72 1.79 1.79 0 0 1-1.68 1.68h-10.4A2.78 2.78 0 0 1 76 58l-2.88-7.76h-21L49.28 58a2.78 2.78 0 0 1-2.72 1.76h-10.4a1.6 1.6 0 0 1-1.16-.5zm20.52-21h14.24l-7.12-20.4zM97 59.18a1.92 1.92 0 0 1-.6-1.4V20.26a2.08 2.08 0 0 1 .6-1.48 1.88 1.88 0 0 1 1.44-.6h9.76a2.05 2.05 0 0 1 2.08 2.08v3a15.29 15.29 0 0 1 5.24-3.8 16.41 16.41 0 0 1 6.68-1.32h3.6a1.92 1.92 0 0 1 2 2v8.76a2 2 0 0 1-.56 1.4 1.88 1.88 0 0 1-1.44.6h-8.08a6.57 6.57 0 0 0-4.92 1.76 6.8 6.8 0 0 0-1.72 5v20.12a1.88 1.88 0 0 1-.6 1.44 2.08 2.08 0 0 1-1.48.56H98.4a1.92 1.92 0 0 1-1.4-.6zm54.15-1.77c.24 3.43-3.35 8.24-8.24 8.24s-8.31-4.81-8.24-8.24a4.7 4.7 0 0 1 1.39-3.51 4.4 4.4 0 0 1 3-1 3.24 3.24 0 0 1 3.83-3.75c1 0 2.91 0 3.75 1.42a3.21 3.21 0 0 1 .26 2.43 4 4 0 0 1 2.17.5c1.88 1.08 2.05 3.56 2.08 3.91z"/><path d="M142.2 58.57h1.43v15.57h-1.43z"/></svg>