<svg data-name="Слой 13" xmlns="http://www.w3.org/2000/svg" viewBox="0 0 185 75"><title>category</title><path d="M90.17 26.12a6.91 6.91 0 1 0-7.07-11.83v-.49a6.91 6.91 0 1 0-13.83 0v.37A6.91 6.91 0 1 0 62.23 26a6.91 6.91 0 1 0 7.08 11.86v.22a6.91 6.91 0 1 0 13.83 0v-.1a6.91 6.91 0 1 0 7.03-11.86zm-3.1-11.41a5.24 5.24 0 1 1-5.24 5.24 5.24 5.24 0 0 1 5.25-5.24zM76.21 8.56A5.24 5.24 0 1 1 71 13.8a5.24 5.24 0 0 1 5.21-5.24zM60.29 19.94a5.24 5.24 0 1 1 5.24 5.24 5.24 5.24 0 0 1-5.24-5.24zm5.24 17.39a5.24 5.24 0 1 1 5.24-5.24 5.24 5.24 0 0 1-5.24 5.24zm10.69 6A5.24 5.24 0 1 1 80.46 35a6.9 6.9 0 0 0 .54 1 5.24 5.24 0 0 1-4.79 7.34zm10.49-6a5.23 5.23 0 0 1-4.25-2.18 6.9 6.9 0 0 0-.56-1 5.24 5.24 0 1 1 4.81 3.18zm22.05-4.46a17.63 17.63 0 1 0 17.63 17.63 17.63 17.63 0 0 0-17.63-17.63zm0 31.25a13.63 13.63 0 1 1 13.63-13.63 13.63 13.63 0 0 1-13.63 13.63z"/><circle cx="108.76" cy="50.49" r="3.31"/><path d="M107.97 35.95h1.58v29.33h-1.58z"/><path d="M95.811 43.541l.79-1.374L122.12 56.83l-.79 1.375z"/><path d="M96.459 58.63l-.79-1.368 25.4-14.665.79 1.368z"/></svg>