<svg data-name="Слой 11" xmlns="http://www.w3.org/2000/svg" viewBox="0 0 185 75"><title>category</title><path d="M61.12 59.18a1.91 1.91 0 0 1-.6-1.4V5.86a2.09 2.09 0 0 1 .56-1.48 1.88 1.88 0 0 1 1.44-.6h9a2.93 2.93 0 0 1 2.76 1.52l18.88 29.84V5.86a2.09 2.09 0 0 1 .56-1.48 1.88 1.88 0 0 1 1.44-.6h10.16a1.88 1.88 0 0 1 1.44.6 2.09 2.09 0 0 1 .56 1.48V57.7a2.09 2.09 0 0 1-.56 1.48 1.88 1.88 0 0 1-1.44.6h-9a2.93 2.93 0 0 1-2.72-1.52L74.76 29.62v28.16a1.88 1.88 0 0 1-.6 1.44 2.09 2.09 0 0 1-1.48.56H62.52a1.92 1.92 0 0 1-1.4-.6zm68.76 6.01c.66-8.22-7-15.68-8.39-17-1.27 1.16-9.46 8.8-8.78 17a9.39 9.39 0 0 0 2 5.52 9.11 9.11 0 0 0 6.59 3.06 8.92 8.92 0 0 0 6.46-2.8 9.37 9.37 0 0 0 2.12-5.78z"/></svg>