<svg data-name="Слой 11" xmlns="http://www.w3.org/2000/svg" viewBox="0 0 185 75"><title>category</title><path d="M171.6 65.83c.66-8.22-7-15.68-8.39-17-1.27 1.16-9.46 8.8-8.78 17a9.39 9.39 0 0 0 2 5.52 9.11 9.11 0 0 0 6.57 3.07 8.92 8.92 0 0 0 6.46-2.8 9.37 9.37 0 0 0 2.14-5.79zM24 55.06q-6.52-5.52-6.92-16.16-.08-2.16-.08-7t.08-7.2q.4-10.4 7-16T42 3a33.28 33.28 0 0 1 12.76 2.3 20.62 20.62 0 0 1 8.92 6.7 17.75 17.75 0 0 1 3.44 10.4 1.57 1.57 0 0 1-.52 1.2 1.77 1.77 0 0 1-1.24.48H54a2.51 2.51 0 0 1-1.64-.44 3.67 3.67 0 0 1-.92-1.64q-1.12-3.9-3.44-5.46A10.52 10.52 0 0 0 42 15q-9 0-9.36 10.08-.08 2.16-.08 6.64t.08 6.8Q33 48.58 42 48.58A10.54 10.54 0 0 0 48 47a9.13 9.13 0 0 0 3.4-5.44 3 3 0 0 1 .88-1.64 2.69 2.69 0 0 1 1.72-.46h11.36a1.77 1.77 0 0 1 1.24.48 1.57 1.57 0 0 1 .52 1.2 17.75 17.75 0 0 1-3.44 10.4 20.61 20.61 0 0 1-8.92 6.72A33.3 33.3 0 0 1 42 60.58q-11.44 0-18-5.52zm57 0q-6.56-5.52-7-16.24-.08-2.24-.08-6.88T74 25q.32-10.58 7-16.3T98.88 3q11.12 0 17.8 5.7t7 16.28q.16 4.64.16 7t-.16 6.88q-.4 10.72-6.92 16.24t-17.88 5.48q-11.36 0-17.88-5.52zm24.56-9q2.48-2.52 2.64-7.72.16-4.64.16-6.64t-.16-6.48q-.2-5.22-2.68-7.72a8.89 8.89 0 0 0-6.64-2.5 9 9 0 0 0-6.72 2.52q-2.48 2.48-2.64 7.7-.08 2.24-.08 6.48t.08 6.64q.16 5.2 2.64 7.72a9 9 0 0 0 6.72 2.52 8.9 8.9 0 0 0 6.64-2.52zm21.99 16.07a.72.72 0 0 1-.22-.53v-2.24a1.85 1.85 0 0 1 .75-1.5l2.79-2.73q2.85-2.16 4.31-3.36a14.89 14.89 0 0 0 2.22-2.17 3.05 3.05 0 0 0 .76-1.85 2 2 0 0 0-2.22-2.22 2.29 2.29 0 0 0-1.8.71 3.64 3.64 0 0 0-.84 1.76.92.92 0 0 1-1 .69h-4a.64.64 0 0 1-.46-.2.6.6 0 0 1-.2-.43 6.87 6.87 0 0 1 1.1-3.58 7.27 7.27 0 0 1 2.89-2.55 9.35 9.35 0 0 1 4.29-.94 10.69 10.69 0 0 1 4.35.81 5.91 5.91 0 0 1 3.72 5.7 6.25 6.25 0 0 1-1.33 3.9 20.92 20.92 0 0 1-4.07 3.78l-2.49 2.49h7.59a.72.72 0 0 1 .75.75v3.21a.75.75 0 0 1-.21.53.71.71 0 0 1-.54.22h-15.61a.72.72 0 0 1-.53-.25z"/></svg>