<svg data-name="Слой 11" xmlns="http://www.w3.org/2000/svg" viewBox="0 0 185 75"><title>category</title><path d="M53.52 55.06q-6.56-5.52-7-16.24-.08-2.24-.08-6.88t.08-7q.32-10.56 7-16.28T71.44 3q11.12 0 17.8 5.7t7 16.28q.16 4.64.16 7t-.16 6.88q-.4 10.72-6.92 16.24t-17.88 5.48q-11.36 0-17.92-5.52zm24.56-9q2.48-2.52 2.64-7.72.16-4.64.16-6.64t-.16-6.48q-.16-5.22-2.64-7.72a8.89 8.89 0 0 0-6.64-2.5 9 9 0 0 0-6.72 2.52q-2.48 2.48-2.64 7.7Q62 27.46 62 31.7t.08 6.64q.16 5.2 2.64 7.72a9 9 0 0 0 6.72 2.52 8.9 8.9 0 0 0 6.64-2.52zm22.43 15.35a.72.72 0 0 1-.22-.53v-2.24a1.85 1.85 0 0 1 .75-1.5l2.79-2.73q2.85-2.16 4.31-3.36a14.89 14.89 0 0 0 2.22-2.17 3.05 3.05 0 0 0 .76-1.85 2 2 0 0 0-2.22-2.22 2.29 2.29 0 0 0-1.8.71 3.64 3.64 0 0 0-.84 1.75.92.92 0 0 1-1 .69h-4a.64.64 0 0 1-.46-.2.6.6 0 0 1-.2-.43 6.87 6.87 0 0 1 1.1-3.58 7.27 7.27 0 0 1 2.89-2.55 9.35 9.35 0 0 1 4.29-.94 10.69 10.69 0 0 1 4.35.81 5.91 5.91 0 0 1 3.72 5.7 6.25 6.25 0 0 1-1.33 3.9 20.92 20.92 0 0 1-4.07 3.78l-2.49 2.49h7.59a.72.72 0 0 1 .75.75v3.21a.75.75 0 0 1-.21.53.71.71 0 0 1-.54.22H101a.72.72 0 0 1-.49-.24zm41.68-4.01c.24 3.43-3.35 8.24-8.24 8.24s-8.31-4.81-8.24-8.24a4.7 4.7 0 0 1 1.39-3.51 4.4 4.4 0 0 1 3-1 3.24 3.24 0 0 1 3.83-3.75c1 0 2.91 0 3.75 1.42a3.21 3.21 0 0 1 .25 2.42 4 4 0 0 1 2.17.5c1.9 1.1 2.07 3.58 2.09 3.92z"/><path d="M133.24 58.57h1.43v15.57h-1.43z"/></svg>