<svg id="Слой_9" data-name="Слой 9" xmlns="http://www.w3.org/2000/svg" viewBox="0 0 185 75"><defs><style>.cls-1{fill:none;stroke:#000;stroke-miterlimit:10;stroke-width:2px}.cls-2{opacity:.9}</style></defs><title>category</title><circle class="cls-1" cx="94.1" cy="45.53" r="17.42"/><circle cx="94.1" cy="45.53" r="4.13"/><rect x="92.41" y="16.65" width="4.19" height="57.37" rx="2.1" ry="2.1" transform="rotate(66.1 94.505 45.34)"/><path d="M90.85 66.4h6.49v4.73h-6.49z"/><path d="M91.73 62.79h4.73v4.73h-4.73z"/><path transform="rotate(-50.46 110.639 59.187)" d="M108.62 54.92h4.05v8.53h-4.05z"/><path transform="rotate(-5.11 70.288 47.709)" d="M63.65 44.23h13.28v6.98H63.65z"/><path transform="rotate(-5.11 61.38 48.547)" d="M59.1 43.56h4.58v9.9H59.1z"/><path transform="rotate(-5.11 60.856 42.685)" d="M58.56 41.61h4.58v2.15h-4.58z"/><path transform="rotate(-5.11 61.91 54.296)" d="M59.62 53.25h4.58v2.15h-4.58z"/><circle class="cls-1" cx="113.85" cy="16.86" r="12.68"/><circle cx="113.85" cy="16.86" r="1.55"/><path class="cls-2" d="M120.8 12.44l.44-1-1.11.07-6.86 5 .67.92z"/><path class="cls-2" d="M111.52 24.15l.25.85.69-.66 1.71-7.05-.94-.23z"/><path transform="matrix(.87 .5 -.5 .87 28.72 -49.65)" d="M103.48 27.64h7.05v2.26h-7.05z"/><path d="M108.38 30.21l-3.17-1.83-1.48 2.62 2.92 2.33z"/><circle class="cls-1" cx="75.2" cy="16.55" r="12.68"/><circle cx="75.2" cy="16.55" r="1.55"/><path class="cls-2" d="M68.24 12.12l-.44-1 1.11.07 6.86 5-.67.92z"/><path class="cls-2" d="M77.52 23.84l-.26.89-.69-.66-1.7-7.07.94-.23z"/><path transform="rotate(150 82.038 28.45)" d="M78.51 27.32h7.05v2.26h-7.05z"/><path d="M80.66 29.9l3.17-1.83 1.49 2.57L82.4 33z"/></svg>