<svg data-name="Слой 11" xmlns="http://www.w3.org/2000/svg" viewBox="0 0 185 75"><title>category</title><path d="M171.14 57.1c.24 3.43-3.35 8.24-8.24 8.24s-8.31-4.81-8.24-8.24a4.7 4.7 0 0 1 1.39-3.51 4.4 4.4 0 0 1 3-1 3.24 3.24 0 0 1 3.83-3.75c1 0 2.91 0 3.75 1.42a3.21 3.21 0 0 1 .25 2.42 4 4 0 0 1 2.17.5c1.89 1.09 2.06 3.57 2.09 3.92z"/><path d="M162.19 58.26h1.43v15.57h-1.43zm-137.66-3.2Q18 49.54 17.61 38.9q-.08-2.16-.08-7t.08-7.2q.4-10.4 7-16T42.49 3a33.28 33.28 0 0 1 12.76 2.3 20.62 20.62 0 0 1 8.92 6.7 17.75 17.75 0 0 1 3.44 10.4 1.57 1.57 0 0 1-.52 1.2 1.77 1.77 0 0 1-1.24.48H54.49a2.51 2.51 0 0 1-1.64-.44 3.66 3.66 0 0 1-.92-1.64q-1.12-3.92-3.4-5.48a10.52 10.52 0 0 0-6-1.56q-9 0-9.36 10.08-.08 2.16-.08 6.64t.08 6.8q.32 10.08 9.36 10.08a10.54 10.54 0 0 0 6-1.6 9.14 9.14 0 0 0 3.4-5.44 3 3 0 0 1 .88-1.64 2.69 2.69 0 0 1 1.68-.44h11.36a1.77 1.77 0 0 1 1.24.48 1.57 1.57 0 0 1 .52 1.2 17.75 17.75 0 0 1-3.44 10.4 20.61 20.61 0 0 1-8.92 6.72 33.3 33.3 0 0 1-12.76 2.32q-11.44.02-17.96-5.5zm56.92 0q-6.56-5.52-7-16.24-.08-2.24-.08-6.88t.08-7q.32-10.56 7-16.28T99.37 3q11.12 0 17.8 5.72t7 16.28q.16 4.64.16 7t-.16 6.88q-.4 10.72-6.92 16.24t-17.88 5.46q-11.37 0-17.92-5.52zm24.56-9q2.48-2.52 2.64-7.72.16-4.64.16-6.64t-.16-6.48Q108.49 20 106 17.5a8.9 8.9 0 0 0-6.63-2.5 9 9 0 0 0-6.72 2.52Q90.17 20 90 25.22q-.08 2.24-.08 6.48t.08 6.64q.16 5.2 2.64 7.72a9 9 0 0 0 6.72 2.52 8.9 8.9 0 0 0 6.64-2.52zM128 62.13a.72.72 0 0 1-.22-.53v-2.24a1.85 1.85 0 0 1 .75-1.5l2.79-2.73q2.85-2.16 4.31-3.36a14.89 14.89 0 0 0 2.22-2.17 3.05 3.05 0 0 0 .76-1.85 2 2 0 0 0-2.22-2.22 2.29 2.29 0 0 0-1.8.71 3.64 3.64 0 0 0-.84 1.75.92.92 0 0 1-1 .69h-4a.64.64 0 0 1-.46-.2.6.6 0 0 1-.2-.43 6.87 6.87 0 0 1 1.1-3.58 7.27 7.27 0 0 1 2.89-2.55 9.35 9.35 0 0 1 4.29-.94 10.69 10.69 0 0 1 4.35.81 5.91 5.91 0 0 1 3.72 5.7 6.25 6.25 0 0 1-1.33 3.9 20.92 20.92 0 0 1-4.07 3.78l-2.49 2.49h7.59a.72.72 0 0 1 .75.75v3.21a.75.75 0 0 1-.21.53.71.71 0 0 1-.54.22h-15.57a.72.72 0 0 1-.57-.24z"/></svg>