<svg id="Слой_13" data-name="Слой 13" xmlns="http://www.w3.org/2000/svg" viewBox="0 0 185 75"><defs><style>.cls-1{fill:none;stroke:#000;stroke-miterlimit:10}</style></defs><title>category</title><path d="M118.31 27.81c1.15-2.55 1.26-5.44-.56-7.51l-1.52-1.72 5.41-4.78 1.48 1.68 2.28-2-5.52-6.24-2.28 2 1.48 1.68-5.41 4.78-1.31-1.48c-2.84-3.21-8.89-2.77-12.05 0L89.08 24.2l.11.13L61.34 49a7.71 7.71 0 0 0-.66 10.85l5.3 6a7.71 7.71 0 0 0 10.85.66l39.09-34.61a7.62 7.62 0 0 0 2.39-4.09zm-9.6 22.55a56.63 56.63 0 0 0-5.62 2l-1.64 4.42c1 1.6 1.88 3.28 2.88 4.75l17.54 6.86 4.37-11.18zM105 57a1.42 1.42 0 1 1 1.84-.81A1.42 1.42 0 0 1 105 57z"/><path class="cls-1" d="M105.53 55.42c-3.15-3-4.77-3.22-5.67-2.83-1.58.68-1.3 3.4-3.17 4.29-1.35.64-3 0-4.19-.69"/></svg>