<svg id="Слой_13" data-name="Слой 13" xmlns="http://www.w3.org/2000/svg" viewBox="0 0 185 75"><defs><style>.cls-1{fill:none;stroke:#000;stroke-miterlimit:10}</style></defs><title>category</title><rect x="70.08" y="9.57" width="12.9" height="4.13" rx="1.05" ry="1.05" transform="rotate(-30 76.539 11.649)"/><path class="cls-1" d="M117.75 8.49A4 4 0 0 0 115 7.24c-2.43-.27-11.67-.32-24.38 0-.57.11-1.09.24-1.69.38s-1 .25-1.47.38L69 18.74A4.06 4.06 0 0 0 67.37 20a5.82 5.82 0 0 0-.87 1.62v42a6 6 0 0 0 1.75 2.57 4.93 4.93 0 0 0 3.25 1.31h43.75c2.34 0 3.25-1.55 3.25-3.89V11.49c0-1.17.02-2.23-.75-3zm-5.25 9H95.17a3.5 3.5 0 1 1 0-7h17.33a3.5 3.5 0 1 1 0 7.01z"/><path d="M111.28 65.61H73.34a4.23 4.23 0 0 1-4.22-4.22v-21a44.76 44.76 0 0 0 9.13 1.87c8 .78 12.66-1 21.08-1.83a84.87 84.87 0 0 1 16.17 0v21a4.23 4.23 0 0 1-4.22 4.18z"/></svg>