<svg data-name="Слой 11" xmlns="http://www.w3.org/2000/svg" viewBox="0 0 185 75"><title>category</title><path d="M46.6 60.43a1.6 1.6 0 0 1-.52-1.16 2.45 2.45 0 0 1 .08-.72L64.8 7.27A3.12 3.12 0 0 1 68 4.95h12.48a3.13 3.13 0 0 1 3.2 2.32l18.64 51.28a2.45 2.45 0 0 1 .08.72 1.79 1.79 0 0 1-1.68 1.68h-10.4a2.77 2.77 0 0 1-2.72-1.76l-2.88-7.76h-21l-2.88 7.76a2.78 2.78 0 0 1-2.72 1.76H47.76a1.6 1.6 0 0 1-1.16-.52zm20.52-21h14.24L74.24 19zm41.48 20.92a1.91 1.91 0 0 1-.6-1.4V21.43a2.08 2.08 0 0 1 .56-1.48 1.87 1.87 0 0 1 1.44-.6h9.76a2 2 0 0 1 2.08 2.08v3a15.3 15.3 0 0 1 5.24-3.8 16.41 16.41 0 0 1 6.68-1.32h3.6a1.92 1.92 0 0 1 2 2v8.72a2 2 0 0 1-.56 1.4 1.89 1.89 0 0 1-1.44.6h-8.08a6.57 6.57 0 0 0-4.92 1.76 6.8 6.8 0 0 0-1.72 5v20.16a1.88 1.88 0 0 1-.6 1.44 2.08 2.08 0 0 1-1.48.56H110a1.92 1.92 0 0 1-1.4-.6z"/></svg>