<svg data-name="Слой 11" xmlns="http://www.w3.org/2000/svg" viewBox="0 0 185 75"><title>category</title><path d="M65.18 55.06q-6.56-5.52-7-16.24-.08-2.24-.08-6.88t.08-7q.32-10.56 7-16.28T83.1 3q11.12 0 17.8 5.7t7 16.28q.16 4.64.16 7t-.16 6.88q-.4 10.68-6.9 16.2t-17.9 5.52q-11.36 0-17.92-5.52zm24.56-9q2.48-2.52 2.64-7.72.16-4.64.16-6.64t-.16-6.48q-.16-5.22-2.64-7.72A8.9 8.9 0 0 0 83.1 15a9 9 0 0 0-6.72 2.52q-2.48 2.48-2.64 7.7-.08 2.24-.08 6.48t.08 6.64q.16 5.2 2.64 7.72a9 9 0 0 0 6.72 2.52 8.9 8.9 0 0 0 6.64-2.52zm22.43 15.35a.72.72 0 0 1-.22-.53v-2.24a1.85 1.85 0 0 1 .75-1.5l2.79-2.73q2.85-2.16 4.31-3.36a14.89 14.89 0 0 0 2.2-2.18 3.05 3.05 0 0 0 .76-1.85 2 2 0 0 0-2.22-2.22 2.29 2.29 0 0 0-1.8.71 3.64 3.64 0 0 0-.84 1.75.92.92 0 0 1-1 .69h-4a.64.64 0 0 1-.46-.2.6.6 0 0 1-.2-.43 6.87 6.87 0 0 1 1.1-3.58 7.27 7.27 0 0 1 2.89-2.55 9.35 9.35 0 0 1 4.29-.94 10.69 10.69 0 0 1 4.35.81 5.91 5.91 0 0 1 3.72 5.7 6.25 6.25 0 0 1-1.33 3.9 20.92 20.92 0 0 1-4.07 3.78l-2.49 2.49h7.59a.72.72 0 0 1 .75.75v3.21a.75.75 0 0 1-.21.53.71.71 0 0 1-.54.22h-15.6a.72.72 0 0 1-.52-.23z"/></svg>