<svg id="Слой_13" data-name="Слой 13" xmlns="http://www.w3.org/2000/svg" viewBox="0 0 185 75"><defs><style>.cls-1,.cls-2{fill:none;stroke:#000;stroke-miterlimit:10}.cls-1{stroke-width:1.39px}</style></defs><title>category</title><rect x="84" y="12.69" width="30.33" height="6.67" rx="2.08" ry="2.08"/><path class="cls-1" transform="rotate(90 98.25 40.38)" d="M97.12 22.8h2.25v35.17h-2.25z"/><path class="cls-1" transform="rotate(90 98.25 42.88)" d="M97.12 25.3h2.25v35.17h-2.25z"/><path class="cls-1" transform="rotate(90 98.25 45.27)" d="M97.12 27.69h2.25v35.17h-2.25z"/><path class="cls-1" transform="rotate(90 98.25 47.52)" d="M97.12 29.94h2.25v35.17h-2.25z"/><path class="cls-1" transform="rotate(90 98.25 49.77)" d="M97.12 32.19h2.25v35.17h-2.25z"/><path class="cls-1" transform="rotate(90 98.25 52)" d="M97.12 34.42h2.25v35.17h-2.25z"/><path class="cls-1" transform="rotate(90 98.25 26.5)" d="M97.12 8.92h2.25v35.17h-2.25z"/><path class="cls-1" transform="rotate(90 98.25 29)" d="M97.12 11.42h2.25v35.17h-2.25z"/><path class="cls-1" transform="rotate(90 98.25 31.4)" d="M97.12 13.82h2.25v35.17h-2.25z"/><path class="cls-1" transform="rotate(90 98.25 33.65)" d="M97.12 16.07h2.25v35.17h-2.25z"/><path class="cls-1" transform="rotate(90 98.25 35.9)" d="M97.12 18.32h2.25v35.17h-2.25z"/><path class="cls-1" transform="rotate(90 98.25 38.13)" d="M97.12 20.55h2.25v35.17h-2.25z"/><path d="M80.04 22.16h1.25v34.5h-1.25zm35.17-.19h1.25v34.5h-1.25z"/><path class="cls-2" d="M114.85 19.5h-41.7a18 18 0 0 0-15.15 8h-6.5v24h7v-.28c4 4.24 8.83 7.28 14.65 7.28h41.7a19 19 0 0 0 18.65-18.8v-2a18.42 18.42 0 0 0-18.65-18.2z"/><circle class="cls-2" cx="63.56" cy="39.13" r="4.56"/><ellipse cx="64.17" cy="30.15" rx="1.67" ry=".71" transform="rotate(-17.67 64.171 30.137)"/><ellipse cx="62.98" cy="26.41" rx="1.67" ry=".71" transform="rotate(-30 62.982 26.416)"/><ellipse cx="63.88" cy="46.85" rx=".71" ry="1.67" transform="rotate(-72.33 63.883 46.853)"/><ellipse cx="62.69" cy="50.58" rx=".71" ry="1.67" transform="rotate(-60 62.697 50.586)"/><path class="cls-2" d="M81.63 58.69h24.75v3.63H81.63z"/><path d="M71.62 21.25h.58V57h-.58z"/><circle cx="63.56" cy="39.13" r="2.71"/></svg>