<svg data-name="Слой 11" xmlns="http://www.w3.org/2000/svg" viewBox="0 0 185 75"><title>category</title><path d="M48.3 58.29a1.94 1.94 0 0 1-.56-1.44V4.93a2.08 2.08 0 0 1 .56-1.48 1.88 1.88 0 0 1 1.44-.6h11a2.05 2.05 0 0 1 2.08 2.08v19h18.84v-19a2 2 0 0 1 2.08-2.08h10.88a2.05 2.05 0 0 1 2.08 2.08v51.92a1.88 1.88 0 0 1-.6 1.44 2.08 2.08 0 0 1-1.48.56H83.74a2.08 2.08 0 0 1-1.48-.56 1.88 1.88 0 0 1-.6-1.44v-19.6H62.78v19.6a1.88 1.88 0 0 1-.6 1.44 2.08 2.08 0 0 1-1.48.56h-11a1.94 1.94 0 0 1-1.4-.56zm51.7 2.2a.72.72 0 0 1-.21-.49v-2.29a1.84 1.84 0 0 1 .75-1.5l2.79-2.73q2.85-2.16 4.3-3.36a14.85 14.85 0 0 0 2.22-2.17 3 3 0 0 0 .76-1.85 2 2 0 0 0-2.22-2.22 2.29 2.29 0 0 0-1.8.71 3.65 3.65 0 0 0-.84 1.75.92.92 0 0 1-1 .69h-4a.64.64 0 0 1-.46-.2.61.61 0 0 1-.2-.43 6.88 6.88 0 0 1 1.1-3.58 7.27 7.27 0 0 1 2.89-2.55 9.35 9.35 0 0 1 4.29-.94 10.69 10.69 0 0 1 4.35.81 5.91 5.91 0 0 1 3.72 5.7 6.24 6.24 0 0 1-1.34 3.9 20.91 20.91 0 0 1-4.06 3.78L108.57 56h7.59a.72.72 0 0 1 .75.75V60a.75.75 0 0 1-.21.53.71.71 0 0 1-.54.22h-15.62a.72.72 0 0 1-.54-.26zm42.66 5.34c.66-8.22-7-15.68-8.39-17-1.27 1.16-9.46 8.8-8.78 17a9.39 9.39 0 0 0 2 5.52 9.11 9.11 0 0 0 6.59 3.06 8.92 8.92 0 0 0 6.46-2.8 9.37 9.37 0 0 0 2.12-5.78z"/></svg>