<svg data-name="Слой 13" xmlns="http://www.w3.org/2000/svg" viewBox="0 0 185 75"><title>category</title><path d="M60.92 9h63.17v7.03H60.92zm0 50h63.17v7H60.92zm56.29-1H67.79a3 3 0 0 1 0-4.2h49.42a3.18 3.18 0 0 1 0 4.2zm0-5.14H67.79a3 3 0 0 1 0-4.2h49.42a3.18 3.18 0 0 1 0 4.2zm0-5.08H67.79a3 3 0 0 1 0-4.2h49.42a3.18 3.18 0 0 1 0 4.2zm0-5.25H67.79a3 3 0 0 1 0-4.2h49.42a3.18 3.18 0 0 1 0 4.2zm.04-5.53H67.83a3 3 0 0 1 0-4.2h49.42a3.18 3.18 0 0 1 0 4.2zm0-5.1H67.83a3 3 0 0 1 0-4.2h49.42a3.18 3.18 0 0 1 0 4.2zm0-5.37H67.83a3 3 0 0 1 0-4.2h49.42a3.18 3.18 0 0 1 0 4.2zm0-5.25H67.83a3 3 0 0 1 0-4.2h49.42a3.18 3.18 0 0 1 0 4.2z"/></svg>