<svg data-name="Слой 13" xmlns="http://www.w3.org/2000/svg" viewBox="0 0 185 75"><title>category</title><path d="M76.66 15.14L76.14 14a20.71 20.71 0 0 1-2.5-.06L69 16l1.37 3L75 17zm-7.75.86l1.41 3.1L57 25.14a1.28 1.28 0 0 0-.74.69 1.3 1.3 0 0 0 .35 1.42l15.2 33.28-3.49 1.59L52.4 27.05a3.41 3.41 0 0 1-.07-2.55 3.68 3.68 0 0 1 2.51-2.14z"/><path d="M66.596 16.343l3.121-1.397 1.953 4.363-3.122 1.397zm-7.545 29.048l5.951-2.663 1.48 3.304-5.952 2.663z"/><path d="M60.094 48.817l6.818-3.052 6.328 14.139-6.819 3.051zM109 13.81l-.22-1.43a23.79 23.79 0 0 1-2.75-.84l-5.79.89.58 3.77 5.79-.89zm-8.82-1.47l.6 3.87-16.64 2.57a1.48 1.48 0 0 0-1 .53 1.5 1.5 0 0 0-.08 1.69l6.53 41.54-4.36.67-6.74-43.74a3.92 3.92 0 0 1 .71-2.84A4.22 4.22 0 0 1 82.63 15z"/><path d="M97.51 12.048l3.887-.577.808 5.44-3.887.577zM80.158 41.833l7.41-1.1.61 4.115-7.408 1.1z"/><path d="M80.458 45.741l8.494-1.287 2.669 17.612-8.495 1.287zM132.57 28.54l.31-1.22A20.77 20.77 0 0 1 131 25.7l-5-1.28-.83 3.23 5 1.28zM126 24.31l-.85 3.31L110.91 24a1.29 1.29 0 0 0-1 .07 1.31 1.31 0 0 0-.62 1.33l-9.07 35.57-3.73-1 9.65-37.4a3.42 3.42 0 0 1 1.55-2 3.69 3.69 0 0 1 3.31-.09z"/><path d="M123.953 23.142l3.317.875-1.225 4.641-3.316-.875zM99.79 41.077l6.324 1.669-.928 3.52-6.324-1.67z"/><path d="M98.437 44.402l7.242 1.911-3.961 15.016-7.243-1.91z"/></svg>