<svg data-name="Слой 13" xmlns="http://www.w3.org/2000/svg" viewBox="0 0 185 75"><title>category</title><path d="M61.37 35.68v-.06a1 1 0 0 1-.6 1.39l-11.14 4.48.75 1.85 11.21-4.52a1.44 1.44 0 0 1 1.22.59l69.56-28-1.5-3.71zm.16 3.4zm-9.16 10.6v-.06a1 1 0 0 1-.6 1.39l-11.14 4.48.75 1.85 11.21-4.52a1.44 1.44 0 0 1 1.22.59l69.56-28-1.5-3.71zm.16 3.4zm20.84-3.4v-.06a1 1 0 0 1-.6 1.39l-11.14 4.48.75 1.85 11.21-4.52a1.44 1.44 0 0 1 1.22.59l69.56-28-1.5-3.71zm.16 3.4zm-.16 6.6v-.06a1 1 0 0 1-.6 1.39l-11.14 4.48.75 1.85 11.21-4.52a1.44 1.44 0 0 1 1.22.59l69.56-28-1.5-3.71zm.16 3.4z"/></svg>