<svg data-name="Слой 13" xmlns="http://www.w3.org/2000/svg" viewBox="0 0 185 75"><title>category</title><path d="M136.11 35.06l-4.43-3.6c-3.43 1.61-6.47 3.54-10.3 4.84l-14.62 18 11.72 9.52 14.62-18z"/><rect x="107.34" y="57.06" width="12.85" height="1.22" rx=".61" ry=".61" transform="rotate(20.09 113.768 57.665)"/><rect x="106.1" y="58.59" width="12.85" height="1.22" rx=".61" ry=".61" transform="rotate(20.09 112.525 59.195)"/><rect x="104.83" y="60.16" width="12.85" height="1.22" rx=".61" ry=".61" transform="rotate(20.09 111.259 60.759)"/><rect x="103.66" y="61.61" width="12.85" height="1.22" rx=".61" ry=".61" transform="rotate(20.09 110.09 62.217)"/><path d="M111.63 67.94h1.12a.83.83 0 0 0 .9-.51c.12-.32-.22-.46-.53-.57l-4.42-1.34zm3.37-2.12c.12-.32-.21-.47-.52-.59l-10.71-3.66 2.94 2.38 7.29 2.43a.94.94 0 0 0 1-.56z"/><path d="M103.838 61.42l8.323 6.74-1.057 1.305-8.323-6.74zm5.642-22.52l-4-3.22c-3.07 1.44-5.78 3.17-9.21 4.32L83.24 56.09l10.48 8.51 13.07-16.09z"/><rect x="83.76" y="58.56" width="11.49" height="1.09" rx=".55" ry=".55" transform="rotate(20.09 89.51 59.109)"/><rect x="82.66" y="59.93" width="11.49" height="1.09" rx=".55" ry=".55" transform="rotate(20.09 88.412 60.468)"/><rect x="81.52" y="61.33" width="11.49" height="1.09" rx=".55" ry=".55" transform="rotate(20.09 87.262 61.865)"/><rect x="80.47" y="62.63" width="11.49" height="1.09" rx=".55" ry=".55" transform="rotate(20.09 86.215 63.186)"/><path d="M87.59 68.29h1a.75.75 0 0 0 .8-.45c.1-.28-.2-.41-.48-.51l-4-1.2zm3.01-1.9c.1-.28-.19-.42-.47-.53l-9.57-3.27 2.63 2.13 6.57 2.18a.84.84 0 0 0 .84-.51z"/><path d="M80.63 62.45l7.445 6.03-.944 1.165-7.445-6.029zm0-47.74l-4.22-3.43c-3.27 1.53-6.16 3.38-9.81 4.6L52.68 33l11.16 9.07L77.76 25z"/><rect x="53.23" y="35.66" width="12.24" height="1.17" rx=".58" ry=".58" transform="rotate(20.09 59.346 36.242)"/><rect x="52.06" y="37.11" width="12.24" height="1.17" rx=".58" ry=".58" transform="rotate(20.09 58.178 37.7)"/><rect x="50.85" y="38.61" width="12.24" height="1.17" rx=".58" ry=".58" transform="rotate(20.09 56.959 39.198)"/><rect x="49.73" y="39.99" width="12.24" height="1.17" rx=".58" ry=".58" transform="rotate(20.09 55.832 40.562)"/><path d="M57.31 46h1.07a.79.79 0 0 0 .86-.48c.11-.3-.21-.44-.51-.55l-4.21-1.28zm3.21-2c.11-.3-.2-.45-.5-.56L49.82 40l2.8 2.26 7 2.32a.89.89 0 0 0 .9-.58z"/><path d="M49.895 39.804l7.927 6.419-1.007 1.243-7.927-6.419zM109.76 9.54l-5.17-4.2c-4 1.88-7.55 4.13-12 5.64L75.53 32 89.2 43.08l17.05-21z"/><rect x="76.2" y="35.21" width="14.99" height="1.43" rx=".71" ry=".71" transform="rotate(20.09 83.685 35.92)"/><rect x="74.76" y="36.98" width="14.99" height="1.43" rx=".71" ry=".71" transform="rotate(20.09 82.252 37.687)"/><rect x="73.28" y="38.81" width="14.99" height="1.43" rx=".71" ry=".71" transform="rotate(20.09 80.772 39.521)"/><rect x="71.91" y="40.5" width="14.99" height="1.43" rx=".71" ry=".71" transform="rotate(20.09 79.413 41.218)"/><path d="M81.2 47.89l1.31.05a1 1 0 0 0 1-.59c.13-.37-.26-.54-.62-.67l-5.16-1.57zm3.93-2.47c.13-.37-.24-.55-.61-.69L72 40.46l3.43 2.77L84 46.07a1.09 1.09 0 0 0 1.13-.65z"/><path d="M72.116 40.286l9.706 7.86-1.233 1.523-9.707-7.86z"/></svg>