<svg data-name="Слой 11" xmlns="http://www.w3.org/2000/svg" viewBox="0 0 185 75"><title>category</title><path d="M69.5 59.18a1.92 1.92 0 0 1-.6-1.4V5.86a2.08 2.08 0 0 1 .56-1.48 1.87 1.87 0 0 1 1.44-.6h9a2.93 2.93 0 0 1 2.76 1.52l18.88 29.84V5.86a2.09 2.09 0 0 1 .56-1.48 1.88 1.88 0 0 1 1.44-.6h10.16a1.88 1.88 0 0 1 1.44.6 2.09 2.09 0 0 1 .56 1.48V57.7a2.09 2.09 0 0 1-.56 1.48 1.88 1.88 0 0 1-1.44.6h-9a2.92 2.92 0 0 1-2.72-1.52L83.14 29.62v28.16a1.88 1.88 0 0 1-.6 1.44 2.09 2.09 0 0 1-1.48.56H70.9a1.92 1.92 0 0 1-1.4-.6z"/></svg>