<svg id="Слой_13" data-name="Слой 13" xmlns="http://www.w3.org/2000/svg" viewBox="0 0 185 75"><defs><style>.cls-1{fill:none;stroke:#000;stroke-miterlimit:10}</style></defs><title>category</title><path d="M97.83 18.44l-.39-1.19a20.71 20.71 0 0 1-2.44-.34l-4.89 1.59 1 3.16L96 20.07zM90 18.42l1.06 3.24-13.89 4.56a1.28 1.28 0 0 0-.81.6 1.3 1.3 0 0 0 .19 1.45L88 63l-3.65 1.19-12-36.6a3.41 3.41 0 0 1 .21-2.54 3.68 3.68 0 0 1 2.73-1.85z"/><path transform="rotate(-17.8 90.086 20.29)" d="M88.35 17.9h3.42v4.78h-3.42z"/><path class="cls-1" d="M111.66 14.74a6.75 6.75 0 0 0 1.08-3.08l-5.5.5.42-2a13 13 0 0 0-3.66 1.25c-3 1.57-6.09 4.73-5.42 6.17s4.52.76 6.17.5c2.2-.35 5.25-.83 6.91-3.34z"/><path transform="rotate(-17.8 78.488 40.456)" d="M75.22 31.46h6.52v18h-6.52z"/><path transform="rotate(-17.8 81.13 48.655)" d="M75.4 32.8h11.41v31.66H75.4z"/><path transform="rotate(-17.8 74.275 25.37)" d="M68.42 21.73H80.1v7.26H68.42z"/><path transform="rotate(-18.2 69.442 26.458)" d="M67.5 24.42h6.17v4.24H67.5z"/></svg>