<svg xmlns="http://www.w3.org/2000/svg" viewBox="0 0 84 84"><defs><style>.a,.b,.c{fill:none;stroke-miterlimit:10;}.a{stroke:#aec6e0;stroke-width:3.56px;}.b{stroke:#e7f0fa;stroke-width:1.78px;}.c{stroke:#fff;stroke-width:0.89px;}</style></defs><title>category</title><path class="a" d="M4.74,58.65a9.07,9.07,0,0,0,7.45,6.11,9.17,9.17,0,0,0,9.45-6.11,10.25,10.25,0,0,0,19-.56,9.85,9.85,0,0,0,18.23-.44,11.84,11.84,0,0,0,11.34,6.11c5.83-.56,8.74-5.53,9-6"/><path class="b" d="M2.63,36.82A7.64,7.64,0,0,0,8.89,42a7.72,7.72,0,0,0,8-5.15,8.63,8.63,0,0,0,16-.47A8.29,8.29,0,0,0,48.2,36a10,10,0,0,0,9.55,5.15,10.35,10.35,0,0,0,7.58-5.05,8.51,8.51,0,0,0,9,5.57A8.4,8.4,0,0,0,81,35.75"/><path class="c" d="M4.29,20.41a5.93,5.93,0,0,0,4.87,4,6,6,0,0,0,6.18-4A6.7,6.7,0,0,0,27.77,20a6.44,6.44,0,0,0,11.92-.29,7.74,7.74,0,0,0,7.41,4A8,8,0,0,0,53,19.83a6.52,6.52,0,0,0,12.67-.65c1.65,3.52,5.18,5.47,8.45,4.89a7.84,7.84,0,0,0,5.11-3.78"/></svg>