<svg xmlns="http://www.w3.org/2000/svg" viewBox="0 0 223 223"><defs><style>.a{fill:#95aec4;}.b{fill:#e7f0fa;}.c{fill:#bdd2e5;}.d{fill:#fff;}</style></defs><title>category</title><path class="a" d="M48.35,114.8a76.28,76.28,0,0,1,18.82,2c33.7,1.6,43.94-7.75,77.95-1.48,18.77,3.46,28.92,8.76,44.93,5a57.13,57.13,0,0,0,25.81-14,105,105,0,0,0-209.5-1.8,219.36,219.36,0,0,0,41.06,10.28Z"/><path class="b" d="M47.42,114.83A219.36,219.36,0,0,1,6.36,104.55c-0.21,2.69-.34,5.4-0.34,8.14a106,106,0,0,0,.67,11.71A104.23,104.23,0,0,1,47.42,114.83Z"/><path class="b" d="M145.12,115.31c-34-6.27-44.25,3.08-77.95,1.48,16.42,3.85,30.14,12.55,65,19.61,28.21,5.72,41.44,4.53,51,2.59a100.88,100.88,0,0,0,32-12.6,105.85,105.85,0,0,0,.92-13.7c0-2.13-.08-4.24-0.21-6.34a57.13,57.13,0,0,1-25.81,14C174,124.07,163.89,118.77,145.12,115.31Z"/><path class="c" d="M67.17,116.79a76.28,76.28,0,0,0-18.82-2l-0.93,0c3.49,0.52,6.69.9,9.57,1.2C60.62,116.39,64,116.64,67.17,116.79Z"/><path class="c" d="M132.16,136.4c-34.84-7.07-48.57-15.77-65-19.61C64,116.64,60.62,116.39,57,116c-2.88-.29-6.09-0.68-9.57-1.2A104.23,104.23,0,0,0,6.68,124.4a104.38,104.38,0,0,0,5,22.19C25.32,154.07,38,157.24,49.21,158c36.55,2.48,47.51-21.13,84.67-17.28,18.84,1.95,24.22,8.86,47.52,8.64a120.49,120.49,0,0,0,29.45-4,104.38,104.38,0,0,0,4.29-19,100.88,100.88,0,0,1-32,12.6C173.6,140.93,160.36,142.12,132.16,136.4Z"/><path class="a" d="M181.4,149.47c-23.3.22-28.68-6.8-47.52-8.75C96.73,136.88,85.76,160.48,49.21,158a89.77,89.77,0,0,1-37.57-11.19A105.47,105.47,0,0,0,65.94,208c13.66,6,29,10.16,45.09,10.16S142.47,214,156.13,208c25.77-13,45.74-35,54.72-62.41A121,121,0,0,1,181.4,149.47Z"/><path class="d" d="M131.3,84.17c0.29-3.47-.53-6.43-5.73-16.66-3.35-6.59-8.18-15.51-14.69-25.87C104.27,52.33,99.36,61.47,96,68.16c-4.78,9.43-5.73,12.36-5.45,16,0.68,8.61,8.22,20.39,20.39,20.39S130.58,92.75,131.3,84.17Z"/></svg>