<svg xmlns="http://www.w3.org/2000/svg" viewBox="0 0 84 84"><defs><style>.a{fill:none;stroke:#fff;stroke-miterlimit:10;stroke-width:0.66px;}.b{fill:#aec6e0;}.c,.e,.g{fill:#fff;}.c{opacity:0.3;}.d{fill:#e7f0fa;}.f{fill:#ced7e1;}.g{opacity:0.9;}</style></defs><title>category</title><circle class="a" cx="43.96" cy="51.85" r="21.34"/><circle class="b" cx="43.96" cy="51.85" r="21.34"/><circle class="a" cx="43.96" cy="51.85" r="15.61"/><circle class="c" cx="43.96" cy="51.85" r="15.61"/><circle class="a" cx="43.96" cy="51.85" r="9.61"/><circle class="d" cx="43.96" cy="51.85" r="9.61"/><circle class="e" cx="43.96" cy="51.85" r="5.06"/><rect class="e" x="41.89" y="16.45" width="5.14" height="70.3" rx="2.57" ry="2.57" transform="translate(73.63 -9.95) rotate(66.1)"/><rect class="e" x="39.98" y="77.41" width="7.96" height="5.8"/><rect class="e" x="41.06" y="72.99" width="5.8" height="5.8"/><rect class="e" x="61.75" y="63.34" width="4.97" height="10.45" transform="translate(-29.54 74.45) rotate(-50.46)"/><rect class="e" x="6.65" y="50.24" width="16.27" height="8.55" transform="translate(-4.8 1.53) rotate(-5.11)"/><rect class="e" x="1.07" y="49.43" width="5.61" height="12.13" transform="translate(-4.93 0.57) rotate(-5.11)"/><rect class="f" x="0.41" y="47.03" width="5.61" height="2.63" transform="translate(-4.29 0.48) rotate(-5.11)"/><rect class="f" x="1.71" y="61.3" width="5.61" height="2.63" transform="translate(-5.56 0.65) rotate(-5.11)"/><circle class="b" cx="68.16" cy="16.71" r="15.54"/><circle class="b" cx="68.16" cy="16.71" r="15.54"/><circle class="a" cx="68.16" cy="16.71" r="15.54"/><circle class="e" cx="68.16" cy="16.71" r="1.9"/><path class="g" d="M76.68,11.29l0.54-1.21-1.36.08-8.41,6.16,0.82,1.13Z"/><path class="g" d="M65.31,25.65l0.31,1.08,0.84-.8,2.1-8.64L67.4,17Z"/><rect class="e" x="55.46" y="29.91" width="8.64" height="2.77" transform="matrix(0.87, 0.5, -0.5, 0.87, 23.66, -25.69)"/><path class="e" d="M61.46,33.07l-3.89-2.24L55.76,34l3.57,2.85Z"/><circle class="b" cx="20.8" cy="16.32" r="15.54"/><circle class="b" cx="20.8" cy="16.32" r="15.54"/><circle class="a" cx="20.8" cy="16.32" r="15.54"/><circle class="e" cx="20.8" cy="16.32" r="1.9"/><path class="g" d="M12.27,10.9L11.73,9.69,13.1,9.77l8.41,6.16-0.82,1.13Z"/><path class="g" d="M23.65,25.26l-0.31,1.08-0.84-.8L20.4,16.9l1.16-.28Z"/><rect class="e" x="24.86" y="29.53" width="8.64" height="2.77" transform="translate(69.9 43.09) rotate(150)"/><path class="e" d="M27.49,32.68l3.89-2.24,1.82,3.15-3.57,2.85Z"/></svg>