<svg xmlns="http://www.w3.org/2000/svg" viewBox="0 0 223 223"><defs><style>.a{fill:#aec6e0;}.b{fill:#e7f0fa;}.c{fill:#ced7e1;}.d,.h,.i{fill:none;stroke:#fff;stroke-miterlimit:10;}.d{stroke-width:0.53px;}.e,.f,.g{fill:#fff;}.f{opacity:0.9;}.g{opacity:0.2;}.h{stroke-width:2.52px;}.i{stroke-width:1.11px;}</style></defs><title>category</title><rect class="a" x="106.28" y="48.48" width="56.51" height="163.33" rx="18.58" ry="18.58" transform="translate(58.2 -40.77) rotate(21.88)"/><path class="b" d="M175.57,56.12l-18.34-7.37c-9.68-3.89-22,2.68-25.79,12.16L117.51,95.6l52.82,21.22,13.93-34.68C188.07,72.65,185.26,60,175.57,56.12Z"/><rect class="c" x="160.7" y="33.2" width="20.6" height="20.96" transform="translate(28.6 -60.59) rotate(21.88)"/><rect class="c" x="173.94" y="15.55" width="10.76" height="19.45" transform="translate(22.34 -65.01) rotate(21.88)"/><rect class="c" x="180.08" y="43.79" width="12.36" height="4.28" transform="translate(30.54 -66.11) rotate(21.88)"/><rect class="c" x="191.76" y="38.64" width="3.31" height="20.96" rx="1.65" ry="1.65" transform="translate(32.24 -68.55) rotate(21.88)"/><circle class="a" cx="147.18" cy="28.92" r="12.36" transform="translate(106.71 173.35) rotate(-85.46)"/><circle class="d" cx="147.18" cy="28.92" r="12.36" transform="translate(106.71 173.35) rotate(-85.46)"/><circle class="e" cx="147.18" cy="28.92" r="1.51" transform="translate(106.71 173.35) rotate(-85.46)"/><path class="f" d="M143.42,21.82l-0.92-.5,0,1.09,4.36,7.06,0.94-.58Z"/><path class="f" d="M154.08,31.74l0.88-.18-0.58-.72-6.72-2.2-0.3.9Z"/><circle class="g" cx="147.18" cy="28.92" r="12.36" transform="translate(106.71 173.35) rotate(-85.46)"/><rect class="e" x="154.78" y="35.38" width="6.87" height="2.2" transform="translate(38.47 146.13) rotate(-55.46)"/><path class="c" d="M157.71,32.87l-1.25,3.34,6.49,2.43,2.48-2.91Z"/><path class="b" d="M105.51,45.47L24.39,68.11,56.27,182.35l63.55-17.74a7.74,7.74,0,0,0,2.22-1.05c1.83-1.13,2.73-2.44,7.22-10,1.62-2.74-.19.3,1.73-3.07a14.23,14.23,0,0,0,1.82-3.77A8.27,8.27,0,0,0,133,144Z"/><path class="h" d="M105.51,45.47L24.39,68.11,56.27,182.35l63.55-17.74a7.74,7.74,0,0,0,2.22-1.05c1.83-1.13,2.73-2.44,7.22-10,1.62-2.74-.19.3,1.73-3.07a14.23,14.23,0,0,0,1.82-3.77A8.27,8.27,0,0,0,133,144Z"/><path class="e" d="M120.2,164.5a11.28,11.28,0,0,0,1.3-.51c3-1.37,3.89-3.39,8.41-10.93,1.16-1.93,3.14-4.68,3.09-8.15a10.51,10.51,0,0,0-.12-1.46c0.45,3-.84,5.56-2.73,6.19a3.75,3.75,0,0,1-2.69-.21,30.28,30.28,0,0,1-1.49,7c-0.89,2.61-1.75,5-4.06,6.91A10.23,10.23,0,0,1,120.2,164.5Z"/><rect class="e" x="49.42" y="101.21" width="56.9" height="3.69" transform="translate(-24.84 24.73) rotate(-15.6)"/><rect class="e" x="51.15" y="108.59" width="56.9" height="1.29" transform="translate(-26.44 25.42) rotate(-15.6)"/><rect class="e" x="52.08" y="111.93" width="56.9" height="1.29" transform="translate(-27.3 25.79) rotate(-15.6)"/><rect class="e" x="53.01" y="115.26" width="56.9" height="1.29" transform="translate(-28.16 26.17) rotate(-15.6)"/><rect class="e" x="53.94" y="118.6" width="56.9" height="1.29" transform="translate(-29.03 26.54) rotate(-15.6)"/><rect class="e" x="54.87" y="121.94" width="56.9" height="1.29" transform="translate(-29.89 26.91) rotate(-15.6)"/><rect class="e" x="55.8" y="125.27" width="56.9" height="1.29" transform="translate(-30.75 27.29) rotate(-15.6)"/><path class="i" d="M99,153.26a10.94,10.94,0,0,0,5.29-4.07c4-6.07.12-15.64-2.38-15.73-1.54-.06-3.77,3.44-3.58,6.75,0.4,7,11.47,8.47,12.1,15.52,0.4,4.45-3.55,9-5,8.67-1.05-.27-1.44-3.49-1-6.13,1.1-7.26,7.87-8.76,8.1-15.3,0.07-2-.45-4.68-1.45-4.87-0.73-.14-1.62,1.06-2,2-1.69,3.94,2.35,10,4.43,9.7,1.53-.24,2-3.93,3.26-3.79,0.66,0.07.74,1.14,1.43,1.33s2-.61,4.33-4.76"/><path class="a" d="M42.14,147l-4,2.56,29.7,46.59L70,196.7l1.53-.87,0.32-2.29Z"/><path class="a" d="M35,131.52l5.35,8.39c-0.69,1.42-.25,2.78-1,3.29l-3.47,2.21c-0.84.54-3,.25-3.42-0.45l-5.35-8.39c0.43,3.17.58,6.59,0.93,9.81l8.52,5,7.92-5-0.83-9.87C40.8,134.8,37.72,133.24,35,131.52Z"/><path class="e" d="M72,73.14a8.78,8.78,0,1,0,8.78,8.78A8.78,8.78,0,0,0,72,73.14Zm0,15.77a7,7,0,1,1,7-7A7,7,0,0,1,72,88.91Z"/><circle class="e" cx="71.97" cy="81.92" r="1.97"/><rect class="e" x="71.47" y="74.93" width="1.01" height="13.97" rx="0.51" ry="0.51"/><rect class="e" x="71.47" y="74.93" width="1.01" height="13.97" rx="0.51" ry="0.51" transform="translate(-36.85 74.89) rotate(-45)"/><rect class="e" x="71.46" y="74.93" width="1.01" height="13.97" rx="0.51" ry="0.51" transform="translate(153.89 9.95) rotate(90)"/><rect class="e" x="71.46" y="74.93" width="1.01" height="13.97" rx="0.51" ry="0.51" transform="translate(79.01 -26.9) rotate(45)"/></svg>