<svg xmlns="http://www.w3.org/2000/svg" viewBox="0 0 223 223"><defs><style>.a{fill:none;stroke:#fff;stroke-miterlimit:10;stroke-width:1.65px;}.b{fill:#aec6e0;}.c,.e,.g{fill:#fff;}.c{opacity:0.3;}.d{fill:#e7f0fa;}.f{fill:#ced7e1;}.g{opacity:0.9;}</style></defs><title>category</title><circle class="a" cx="114.66" cy="136.25" r="53.03"/><circle class="b" cx="114.66" cy="136.25" r="53.03"/><circle class="a" cx="114.66" cy="136.25" r="38.79"/><circle class="c" cx="114.66" cy="136.25" r="38.79"/><circle class="a" cx="114.66" cy="136.25" r="23.88"/><circle class="d" cx="114.66" cy="136.25" r="23.88"/><circle class="e" cx="114.66" cy="136.25" r="12.57"/><rect class="e" x="109.51" y="48.31" width="12.77" height="174.68" rx="6.38" ry="6.38" transform="translate(192.96 -25.26) rotate(66.1)"/><rect class="e" x="104.78" y="199.78" width="19.77" height="14.41"/><rect class="e" x="107.46" y="188.8" width="14.41" height="14.41"/><rect class="e" x="158.87" y="164.82" width="12.34" height="25.97" transform="translate(-77.15 191.87) rotate(-50.46)"/><rect class="e" x="21.96" y="132.27" width="40.44" height="21.25" transform="translate(-12.56 4.33) rotate(-5.11)"/><rect class="e" x="8.1" y="130.25" width="13.95" height="30.14" transform="translate(-12.88 1.92) rotate(-5.11)"/><rect class="f" x="6.45" y="124.29" width="13.95" height="6.54" transform="translate(-11.31 1.7) rotate(-5.11)"/><rect class="f" x="9.68" y="159.74" width="13.95" height="6.54" transform="translate(-14.45 2.13) rotate(-5.11)"/><circle class="b" cx="174.78" cy="48.95" r="38.61"/><circle class="b" cx="174.78" cy="48.95" r="38.61"/><circle class="a" cx="174.78" cy="48.95" r="38.61"/><circle class="e" cx="174.78" cy="48.95" r="4.73"/><path class="g" d="M196,35.47l1.34-3-3.39.21L173,48l2,2.8Z"/><path class="g" d="M167.7,71.15l0.78,2.69,2.1-2,5.21-21.47-2.87-.7Z"/><rect class="e" x="143.22" y="81.75" width="21.46" height="6.87" transform="matrix(0.87, 0.5, -0.5, 0.87, 63.22, -65.56)"/><path class="e" d="M158.15,89.6L148.49,84,144,91.86,152.85,99Z"/><circle class="b" cx="57.11" cy="47.99" r="38.61"/><circle class="b" cx="57.11" cy="47.99" r="38.61"/><circle class="a" cx="57.11" cy="47.99" r="38.61"/><circle class="e" cx="57.11" cy="47.99" r="4.73"/><path class="g" d="M35.92,34.51l-1.34-3L38,31.71,58.87,47l-2,2.8Z"/><path class="g" d="M64.19,70.18l-0.78,2.69-2.1-2L56.11,49.41l2.87-.7Z"/><rect class="e" x="67.2" y="80.79" width="21.46" height="6.87" transform="translate(187.54 118.2) rotate(150)"/><path class="e" d="M73.74,88.63l9.66-5.58,4.52,7.84L79,98Z"/></svg>