<svg xmlns="http://www.w3.org/2000/svg" viewBox="0 0 84 84"><defs><style>.a{fill:#aec6e0;}.b{fill:#fff;}.c{fill:#e7f0fa;}.d{fill:#ced7e1;}.e{fill:#b5c0c9;}</style></defs><title>category</title><path class="a" d="M17.71,21.68V77.09a6.8,6.8,0,0,0,6.78,6.78H62.84a6.89,6.89,0,0,0,6.89-6.78V21.68h-52Z"/><rect class="b" x="20.8" y="-0.11" width="4.63" height="57.11" transform="translate(-5.94 6.1) rotate(-13.34)"/><path class="c" d="M27,63c13.57,4.52,36,6.83,42.75-8.17V48.65c-14.84,6.25-35.09.62-52,2.11V62.22A17.86,17.86,0,0,1,27,63Z"/><path class="d" d="M69.72,60.13V54.86C62.93,69.86,40.54,67.56,27,63a17.86,17.86,0,0,0-9.26-.82V72.91C36.19,73,59.5,80.3,69.72,60.13Z"/><path class="e" d="M17.71,72.91v4.18a6.8,6.8,0,0,0,6.78,6.78H62.84a6.89,6.89,0,0,0,6.89-6.78v-17C59.5,80.3,36.19,73,17.71,72.91Z"/></svg>