<svg xmlns="http://www.w3.org/2000/svg" viewBox="0 0 84 84"><defs><style>.a{fill:#aec6e0;}.b{fill:#e7f0fa;}.c{fill:#ced7e1;}</style></defs><title>category</title><rect class="a" x="30.28" y="13.15" width="24.11" height="69.69" rx="7.93" ry="7.93"/><path class="b" d="M46.46,12H38.2c-4.36,0-8.2,4.72-8.2,9.08V37H54V21.08C54,16.72,50.82,12,46.46,12Z"/><rect class="c" x="40.35" y="4.3" width="3.96" height="8.75"/><rect class="b" x="38.04" y="1.16" width="8.59" height="3.14"/><rect class="a" x="58.02" y="22.93" width="16.84" height="48.68" rx="5.54" ry="5.54"/><path class="c" d="M69.32,23H63.56A5.51,5.51,0,0,0,58,28.46V39H74V28.46C74,25.42,72.37,23,69.32,23Z"/><rect class="c" x="65.06" y="16.74" width="2.77" height="6.11"/><rect class="b" x="63.44" y="14.55" width="6" height="2.19"/><rect class="a" x="9.14" y="22.93" width="16.84" height="48.68" rx="5.54" ry="5.54"/><path class="c" d="M20.44,23H14.68A5.61,5.61,0,0,0,9,28.46V39H25V28.46C25,25.42,23.49,23,20.44,23Z"/><rect class="c" x="16.18" y="16.74" width="2.77" height="6.11"/><rect class="b" x="14.56" y="14.55" width="6" height="2.19"/></svg>