<svg xmlns="http://www.w3.org/2000/svg" viewBox="0 0 84 84"><defs><style>.a{fill:#aec6e0;}.b{fill:#95aec4;}.c{fill:#bdd2e5;}.d{fill:#fff;}.e{fill:#ced7e1;}</style></defs><title>category</title><path class="a" d="M11.53,7h14.2a4.13,4.13,0,0,0-.1-4,3.84,3.84,0,0,0-1.48-1.42C23,0.83,22.07,1.12,18.73,1.08,15.14,1,14.18.77,13,1.56A4,4,0,0,0,11.63,3,4.42,4.42,0,0,0,11.53,7Z"/><path class="b" d="M10.74,62.72l0,11.64A8.51,8.51,0,0,0,19.23,83H64.74a8.66,8.66,0,0,0,8.64-8.64V55.3c-18,1.14-36.72.48-54.69,5.38A69.81,69.81,0,0,0,10.74,62.72Z"/><path class="a" d="M67.26,31.72c-0.8.53-2.38-.31-5.13-2.26-17,1.63-35.17.69-51.46,4.39q0,14.44.07,28.87a69.81,69.81,0,0,1,7.94-2c18-4.9,36.64-4.24,54.69-5.38V31.4A34,34,0,0,0,73,28a49.39,49.39,0,0,1-5,.83C68.11,30.28,67.84,31.34,67.26,31.72Z"/><path class="c" d="M59.89,6.35C57.79,5,51.52,1.11,43.2,2.4c-9.62,1.49-14.75,8.8-15.65,10.12l-1.39-1.84-15.29,0-0.24,1.48,0.05,21.74C27,30.15,45.15,31.1,62.13,29.46c-1.14-.81-2.47-1.79-4-3-7.25-5.38-7.35-7.1-11.24-8.91-7.38-3.43-13.67-.35-14.3-2.25s5-6.41,11.33-7.56c7.61-1.37,13.32,2.91,14.84,4,6.28,4.71,9.22,12.64,9.35,17A49.39,49.39,0,0,0,73,28a33.14,33.14,0,0,0-3.93-11.38A27.64,27.64,0,0,0,59.89,6.35Z"/><path class="d" d="M50.37,57.27c0.12-1.42-.22-2.64-2.35-6.84-1.38-2.7-3.36-6.37-6-10.61C39.28,44.2,37.26,48,35.87,50.7c-2,3.87-2.35,5.07-2.24,6.57C33.91,60.8,37,65.63,42,65.63S50.07,60.79,50.37,57.27Z"/><rect class="e" x="11.11" y="7" width="14.95" height="3.67"/></svg>