<svg xmlns="http://www.w3.org/2000/svg" viewBox="0 0 223 223"><defs><style>.a{fill:#aec6e0;}.b,.d,.f,.g,.h{fill:#fff;}.b{stroke:#fff;stroke-miterlimit:10;stroke-width:1.33px;}.c{fill:#ced7e1;}.d{opacity:0.93;}.e{fill:#e7f0fa;}.f{opacity:0.58;}.g{opacity:0.44;}</style></defs><title>category</title><path class="a" d="M19.19,181.23l14,5.6,18.05-10,87.15,4,33.3,5,2.18-19.61,14-17.74L175.43,133.3l16.5,2.18,1.56-18.67-14.63-15.87-8.71-8.4L170.45,57,145.55,33.7l-18.67,1.56L115,34,96.68,44.91l-17,.31c-2.07,4.88-4.51,9.75-6.38,14.63L69,73.85l-11.2,4L57.47,92.53l5.91,3.73-2.49,5-7.47.62L54.36,95q-10.94,6.88-22,14-9.19,5.92-18.19,11.83,6.69,13.38,13.4,26.77L12.33,162.87Z"/><line class="b" x1="200.86" y1="100.14" x2="122.43" y2="131.47"/><path class="c" d="M128.5,109.88A8,8,0,1,0,124,120.25,8,8,0,0,0,128.5,109.88Z"/><path class="d" d="M126.61,110.63a5.94,5.94,0,1,0-3.32,7.73A5.94,5.94,0,0,0,126.61,110.63Zm-9.38,3.75a4.16,4.16,0,1,1,5.4,2.32A4.16,4.16,0,0,1,117.23,114.38Z"/><rect class="e" x="72.19" y="115.38" width="32" height="21.2" transform="translate(172.47 -2.64) rotate(68.23)"/><path class="c" d="M75.94,141.84L68.4,123l4-7.9,11.87,29.71Z"/><rect class="e" x="54.96" y="126.28" width="17.08" height="19.12" transform="translate(166.1 26.48) rotate(68.23)"/><path class="f" d="M61,147.78l-3.84-2,17.75-7.09,1.21,3Z"/><path class="c" d="M53.48,128.88L52.07,133l17.75-7.09-1.21-3Z"/><rect class="g" x="97.83" y="116.59" width="1.16" height="3.48" transform="translate(171.8 -16.95) rotate(68.23)"/><rect class="g" x="100.29" y="122.73" width="1.16" height="3.48" transform="translate(179.05 -15.37) rotate(68.23)"/><rect class="g" x="99.1" y="119.08" width="1.89" height="4.34" transform="translate(175.53 -16.63) rotate(68.23)"/><rect class="h" x="68.73" y="111.73" width="4.16" height="0.89" transform="translate(189.7 53.34) rotate(95.93)"/><path class="h" d="M70.66,113.14l0-1.16a1.59,1.59,0,0,0-1-.15c-1,.26-1.33,1.78-1.19,3.29a10.26,10.26,0,0,0,1.92,4.8l0.59-.24a9.07,9.07,0,0,1-1.77-4.13c-0.11-1,0-2.58.78-2.68A1.16,1.16,0,0,1,70.66,113.14Z"/><rect class="h" x="82.97" y="147.38" width="4.16" height="0.89" transform="translate(53.65 315.45) rotate(-139.48)"/><path class="h" d="M84.26,147.19l0.78,0.9a1.58,1.58,0,0,1-.65.84c-0.88.49-2.2-.41-3.16-1.62a10.76,10.76,0,0,1-2-4.92l0.59-.24a9.5,9.5,0,0,0,1.6,4.31c0.64,0.85,1.8,1.92,2.43,1.45A1.17,1.17,0,0,0,84.26,147.19Z"/><path class="b" d="M209.41,80.21l-1.83-4.57a15.38,15.38,0,0,0-19.93-8.55L109.22,98.41a15.38,15.38,0,0,0-8.55,19.93l1.83,4.57a15.38,15.38,0,0,0,19.93,8.55l78.43-31.33A15.38,15.38,0,0,0,209.41,80.21Zm-80.56,30.54-0.35-.88a8,8,0,1,1-10.38-4.45,8,8,0,0,1,10.38,4.45l-0.35-.88Z"/></svg>