<svg xmlns="http://www.w3.org/2000/svg" viewBox="0 0 84 84"><defs><style>.a{fill:#fff;}.b{fill:#ced7e1;}.c{fill:#aec6e0;}</style></defs><title>category</title><path class="a" d="M11.13,50.85a1.13,1.13,0,0,1-.31-0.79A1.17,1.17,0,0,1,11,49.4l7.15-9.75a4.61,4.61,0,0,1-1.38.1A14.38,14.38,0,0,1,10.87,38,12.41,12.41,0,0,1,6.3,33.85a10.87,10.87,0,0,1-1.76-6.1,12.32,12.32,0,0,1,1.71-6.31,12.49,12.49,0,0,1,5.06-4.72,16.86,16.86,0,0,1,8-1.79,18.82,18.82,0,0,1,8.17,1.63A12,12,0,0,1,32.71,21a11.8,11.8,0,0,1,1.76,6.36,11.42,11.42,0,0,1-1.15,5.13A37.58,37.58,0,0,1,29.87,38L29,39.23l-8,10.93a2.16,2.16,0,0,1-1.84,1h-7.2A1,1,0,0,1,11.13,50.85Zm12-19.43a4.89,4.89,0,0,0,1.46-3.73A4.85,4.85,0,0,0,23.13,24a5.19,5.19,0,0,0-3.68-1.38A5.16,5.16,0,0,0,15.75,24a4.89,4.89,0,0,0-1.46,3.73,4.94,4.94,0,0,0,1.43,3.73,5.15,5.15,0,0,0,3.73,1.38A5.17,5.17,0,0,0,23.16,31.42Z"/><path class="a" d="M44.12,50.85a1.13,1.13,0,0,1-.31-0.79A1.17,1.17,0,0,1,44,49.4l7.15-9.75a4.61,4.61,0,0,1-1.38.1A14.38,14.38,0,0,1,43.86,38a12.41,12.41,0,0,1-4.57-4.19,10.87,10.87,0,0,1-1.76-6.1,12.32,12.32,0,0,1,1.71-6.31,12.49,12.49,0,0,1,5.06-4.72,16.86,16.86,0,0,1,8-1.79,18.82,18.82,0,0,1,8.17,1.63A12,12,0,0,1,65.7,21a11.8,11.8,0,0,1,1.76,6.36,11.42,11.42,0,0,1-1.15,5.13A37.58,37.58,0,0,1,62.86,38l-0.92,1.28-8,10.93a2.16,2.16,0,0,1-1.84,1h-7.2A1,1,0,0,1,44.12,50.85Zm12-19.43a4.89,4.89,0,0,0,1.46-3.73A4.85,4.85,0,0,0,56.12,24a5.63,5.63,0,0,0-7.38,0,4.89,4.89,0,0,0-1.46,3.73,4.94,4.94,0,0,0,1.43,3.73A5.69,5.69,0,0,0,56.15,31.42Z"/><path class="b" d="M68.4,54.68a1,1,0,0,1-.23-0.79l1.58-10.27a2.4,2.4,0,0,1,.56-1.25,1.65,1.65,0,0,1,1.33-.54h6.18a1,1,0,0,1,1,1,1.51,1.51,0,0,1-.1.56l-4,10.16A2,2,0,0,1,72.87,55H69.14A0.92,0.92,0,0,1,68.4,54.68Z"/><path class="c" d="M5.76,71.18a0.37,0.37,0,0,1-.1-0.26,0.38,0.38,0,0,1,.07-0.22l2.36-3.22a1.53,1.53,0,0,1-.46,0,4.75,4.75,0,0,1-2-.56,4.09,4.09,0,0,1-1.51-1.38,3.59,3.59,0,0,1-.58-2,4.05,4.05,0,0,1,2.23-3.64,5.55,5.55,0,0,1,2.65-.59,6.21,6.21,0,0,1,2.7.54,4,4,0,0,1,1.71,1.47,3.9,3.9,0,0,1,.58,2.1,3.78,3.78,0,0,1-.38,1.69,12.38,12.38,0,0,1-1.14,1.79l-0.3.42L9,71a0.71,0.71,0,0,1-.61.34H6A0.33,0.33,0,0,1,5.76,71.18Zm4-6.41a1.8,1.8,0,0,0,0-2.46,1.71,1.71,0,0,0-1.21-.46,1.7,1.7,0,0,0-1.22.46,1.83,1.83,0,0,0,0,2.46,1.7,1.7,0,0,0,1.23.46A1.7,1.7,0,0,0,9.73,64.77Z"/><path class="c" d="M16.64,71.18a0.37,0.37,0,0,1-.1-0.26,0.38,0.38,0,0,1,.07-0.22L19,67.48a1.53,1.53,0,0,1-.46,0,4.75,4.75,0,0,1-2-.56A4.09,4.09,0,0,1,15,65.57a3.59,3.59,0,0,1-.58-2,4.05,4.05,0,0,1,2.23-3.64,5.55,5.55,0,0,1,2.65-.59,6.21,6.21,0,0,1,2.7.54,4,4,0,0,1,1.71,1.47,3.9,3.9,0,0,1,.58,2.1A3.78,3.78,0,0,1,24,65.13a12.38,12.38,0,0,1-1.14,1.79l-0.3.42L19.88,71a0.71,0.71,0,0,1-.61.34H16.9A0.33,0.33,0,0,1,16.64,71.18Zm4-6.41a1.8,1.8,0,0,0,0-2.46,1.86,1.86,0,0,0-2.43,0,1.83,1.83,0,0,0,0,2.46A1.88,1.88,0,0,0,20.61,64.77Z"/><path class="c" d="M27.53,71.18a0.37,0.37,0,0,1-.1-0.26,0.38,0.38,0,0,1,.07-0.22l2.36-3.22a1.53,1.53,0,0,1-.46,0,4.75,4.75,0,0,1-2-.56,4.09,4.09,0,0,1-1.51-1.38,3.59,3.59,0,0,1-.58-2,4.05,4.05,0,0,1,2.23-3.64,5.55,5.55,0,0,1,2.65-.59,6.21,6.21,0,0,1,2.7.54,4,4,0,0,1,1.71,1.47,3.9,3.9,0,0,1,.58,2.1,3.78,3.78,0,0,1-.38,1.69,12.38,12.38,0,0,1-1.14,1.79l-0.3.42L30.76,71a0.71,0.71,0,0,1-.61.34H27.78A0.33,0.33,0,0,1,27.53,71.18Zm4-6.41a1.8,1.8,0,0,0,0-2.46,1.86,1.86,0,0,0-2.43,0,1.83,1.83,0,0,0,0,2.46A1.88,1.88,0,0,0,31.5,64.77Z"/><path class="c" d="M38.41,71.18a0.37,0.37,0,0,1-.1-0.26,0.38,0.38,0,0,1,.07-0.22l2.36-3.22a1.53,1.53,0,0,1-.46,0,4.75,4.75,0,0,1-2-.56,4.09,4.09,0,0,1-1.51-1.38,3.59,3.59,0,0,1-.58-2,4.05,4.05,0,0,1,2.23-3.64,5.55,5.55,0,0,1,2.65-.59,6.21,6.21,0,0,1,2.7.54,4,4,0,0,1,1.71,1.47,3.9,3.9,0,0,1,.58,2.1,3.78,3.78,0,0,1-.38,1.69,12.38,12.38,0,0,1-1.14,1.79l-0.3.42L41.65,71a0.71,0.71,0,0,1-.61.34H38.67A0.33,0.33,0,0,1,38.41,71.18Zm4-6.41a1.8,1.8,0,0,0,0-2.46,1.86,1.86,0,0,0-2.43,0,1.83,1.83,0,0,0,0,2.46A1.88,1.88,0,0,0,42.38,64.77Z"/><path class="c" d="M49.3,71.18a0.37,0.37,0,0,1-.1-0.26,0.38,0.38,0,0,1,.07-0.22l2.36-3.22a1.53,1.53,0,0,1-.46,0,4.75,4.75,0,0,1-2-.56,4.09,4.09,0,0,1-1.51-1.38,3.59,3.59,0,0,1-.58-2,4.05,4.05,0,0,1,2.23-3.64A5.55,5.55,0,0,1,52,59.32a6.21,6.21,0,0,1,2.7.54,4,4,0,0,1,1.71,1.47,3.9,3.9,0,0,1,.58,2.1,3.78,3.78,0,0,1-.38,1.69,12.38,12.38,0,0,1-1.14,1.79l-0.3.42L52.54,71a0.71,0.71,0,0,1-.61.34H49.55A0.33,0.33,0,0,1,49.3,71.18Zm4-6.41a1.8,1.8,0,0,0,0-2.46,1.86,1.86,0,0,0-2.43,0,1.83,1.83,0,0,0,0,2.46A1.88,1.88,0,0,0,53.27,64.77Z"/><path class="c" d="M60.19,71.18a0.37,0.37,0,0,1-.1-0.26,0.38,0.38,0,0,1,.07-0.22l2.36-3.22a1.53,1.53,0,0,1-.46,0,4.75,4.75,0,0,1-2-.56,4.09,4.09,0,0,1-1.51-1.38,3.59,3.59,0,0,1-.58-2,4.05,4.05,0,0,1,2.23-3.64,5.55,5.55,0,0,1,2.65-.59,6.21,6.21,0,0,1,2.7.54,4,4,0,0,1,1.71,1.47,3.9,3.9,0,0,1,.58,2.1,3.78,3.78,0,0,1-.38,1.69,12.38,12.38,0,0,1-1.14,1.79l-0.3.42L63.42,71a0.71,0.71,0,0,1-.61.34H60.44A0.33,0.33,0,0,1,60.19,71.18Zm4-6.41a1.8,1.8,0,0,0,0-2.46,1.86,1.86,0,0,0-2.43,0,1.83,1.83,0,0,0,0,2.46A1.88,1.88,0,0,0,64.15,64.77Z"/></svg>