<svg xmlns="http://www.w3.org/2000/svg" viewBox="0 0 223 223"><defs><style>.a{fill:#aec6e0;}.b{fill:#e7f0fa;}.c{fill:#ced7e1;}.d,.e,.f{fill:#fff;}.d,.f{stroke:#fff;stroke-miterlimit:10;}.d{stroke-width:1.3px;}.f{stroke-width:1.32px;}</style></defs><title>category</title><path class="a" d="M19.19,181.23l14,5.6,18.05-10,87.15,4,33.3,5,2.18-19.61,14-17.74L175.43,133.3l16.5,2.18,1.56-18.67-14.63-15.87-8.71-8.4L170.45,57,145.55,33.7l-18.67,1.56L115,34,96.68,44.91l-17,.31c-2.07,4.88-4.51,9.75-6.38,14.63L69,73.85l-11.2,4L57.47,92.53l5.91,3.73-2.49,5-7.47.62L54.36,95q-10.94,6.88-22,14-9.19,5.92-18.19,11.83,6.69,13.38,13.4,26.77L12.33,162.87Z"/><path class="b" d="M82.44,86a8.53,8.53,0,0,0-3.15,1.1,10.23,10.23,0,0,0-2,1.5v13.74h4.88Z"/><rect class="c" x="101.65" y="98.89" width="16.32" height="2.42"/><path class="b" d="M107,77.43H90.23a17.74,17.74,0,0,0-8,8.57l-0.06,16.34H107V77.43Z"/><circle class="c" cx="93.7" cy="104.78" r="6.66"/><circle class="b" cx="93.7" cy="104.78" r="3.47"/><rect class="d" x="109.05" y="74.86" width="95.47" height="28.38" rx="11.69" ry="11.69"/><circle class="c" cx="165.36" cy="104.78" r="6.66"/><circle class="b" cx="165.36" cy="104.78" r="3.47"/><circle class="c" cx="185.21" cy="104.78" r="6.66"/><circle class="b" cx="185.21" cy="104.78" r="3.47"/><path class="e" d="M104.72,86H83.29a26.14,26.14,0,0,1,7.18-7.06h14.25V86Z"/><rect class="b" x="123.23" y="71.75" width="12.79" height="2.56"/><rect class="b" x="124.45" y="69.68" width="10.35" height="2.07"/><path class="b" d="M128.6,142.54a8.68,8.68,0,0,1,3.2,1.11,10.41,10.41,0,0,1,2,1.53v14h-5Z"/><rect class="c" x="92.45" y="155.65" width="16.6" height="2.46" transform="translate(201.5 313.76) rotate(-180)"/><path class="b" d="M103.57,133.82h17.1a18,18,0,0,1,8.17,8.72l0.07,16.62H103.57V133.82Z"/><circle class="c" cx="117.14" cy="161.64" r="6.77"/><circle class="b" cx="117.14" cy="161.64" r="3.53"/><rect class="f" x="4.41" y="131.2" width="97.12" height="28.87" rx="11.89" ry="11.89" transform="translate(105.94 291.27) rotate(-180)"/><circle class="c" cx="44.23" cy="161.64" r="6.77"/><circle class="b" cx="44.23" cy="161.64" r="3.53"/><circle class="c" cx="24.04" cy="161.64" r="6.77"/><circle class="b" cx="24.04" cy="161.64" r="3.53"/><path class="e" d="M105.93,142.54h21.8a26.59,26.59,0,0,0-7.31-7.19H105.93v7.19Z"/><rect class="b" x="74.09" y="128.04" width="13.01" height="2.6" transform="translate(161.19 258.69) rotate(-180)"/><rect class="b" x="75.33" y="125.94" width="10.53" height="2.11" transform="translate(161.19 253.98) rotate(-180)"/></svg>