<svg xmlns="http://www.w3.org/2000/svg" viewBox="0 0 223 223"><defs><style>.a{fill:#aec6e0;}.b{fill:#ced7e1;}.c{fill:#e7f0fa;}</style></defs><title>category</title><rect class="a" x="153.99" y="63.13" width="44.03" height="127.28" rx="14.48" ry="14.48"/><path class="b" d="M185,63H169.16A14.25,14.25,0,0,0,154,77.61V105h44V77.61C198,69.65,193.31,63,185,63Z"/><rect class="b" x="172.38" y="46.96" width="7.24" height="15.98"/><rect class="c" x="168.16" y="41.23" width="15.68" height="5.73"/><rect class="a" x="26.2" y="63.13" width="44.03" height="127.28" rx="14.48" ry="14.48"/><path class="b" d="M57.35,63H41.46A14.51,14.51,0,0,0,26,77.61V105H70V77.61C70,69.65,65.73,63,57.35,63Z"/><rect class="b" x="44.6" y="46.96" width="7.24" height="15.98"/><rect class="c" x="40.38" y="41.23" width="15.68" height="5.73"/><rect class="a" x="81.46" y="37.59" width="63.03" height="182.18" rx="20.72" ry="20.72"/><path class="c" d="M124.34,35H102.47C90.92,35,81,46.91,81,58.31V100h63V58.31C144,46.91,135.89,35,124.34,35Z"/><rect class="b" x="107.8" y="14.44" width="10.36" height="20.56"/><rect class="c" x="101.75" y="6.23" width="22.45" height="8.2"/></svg>