<svg xmlns="http://www.w3.org/2000/svg" viewBox="0 0 223 223"><defs><style>.a{fill:#aec6e0;}.b{fill:#95aec4;}.c{fill:#bdd2e5;}.d{fill:#fff;}.e{fill:#ced7e1;}</style></defs><title>category</title><path class="a" d="M35.17,24H71c0.39,0,2.55-5.27-.25-10.09A9.59,9.59,0,0,0,67,10.35c-3-1.87-5.25-1.12-13.7-1.22C44.28,9,41.85,8.35,38.9,10.34a10,10,0,0,0-3.49,3.54C32.9,18.7,34.7,24,35.17,24Z"/><path class="b" d="M33.18,164.8q0,14.69.07,29.39A21.49,21.49,0,0,0,54.61,216H169.56a21.87,21.87,0,0,0,21.81-21.81V146.07c-45.58,2.89-92.73,1.22-138.12,13.6C47,161.06,39.85,162.47,33.18,164.8Z"/><path class="a" d="M175.92,86.52c-2,1.34-6-.79-13-5.7-42.89,4.13-88.83,1.73-130,11.08q0.09,36.46.18,72.92c6.67-2.33,13.77-3.74,20.06-5.14,45.39-12.38,92.54-10.71,138.12-13.6V85.7a85.88,85.88,0,0,0-.87-8.61A124.74,124.74,0,0,1,178,79.19C178.06,82.88,177.37,85.55,175.92,86.52Z"/><path class="c" d="M157.29,22.45c-5.29-3.4-21.14-13.25-42.14-10C90.86,16.22,77.89,34.67,75.62,38L72.1,33.36l-38.62-.11L32.87,37,33,91.89c41.12-9.35,87.06-6.95,130-11.08-2.88-2-6.25-4.53-10.21-7.47-18.32-13.59-18.57-17.92-28.4-22.49-18.63-8.66-34.53-.89-36.12-5.68S100.79,29,116.85,26.09c19.22-3.46,33.64,7.34,37.48,10.22C170.21,48.2,177.63,68.24,178,79.19a124.74,124.74,0,0,0,12.54-2.11,83.71,83.71,0,0,0-9.92-28.73C177,42.07,170.54,31,157.29,22.45Z"/><path class="d" d="M133.24,151c0.3-3.59-.55-6.66-5.94-17.26-3.47-6.83-8.48-16.08-15.22-26.81-6.85,11.08-11.93,20.55-15.45,27.49-5,9.77-5.94,12.81-5.64,16.58,0.71,8.92,8.52,21.13,21.13,21.13S132.5,159.93,133.24,151Z"/><rect class="e" x="34.11" y="24.08" width="37.77" height="9.28"/></svg>