<svg xmlns="http://www.w3.org/2000/svg" viewBox="0 0 223 223"><defs><style>.a{fill:#aec6e0}.b,.g{fill:#fff}.b{opacity:.25}.c{fill:#95aec4}.d{fill:#bdd2e5}.e{fill:#ced7e1}.f{fill:#e7f0fa}</style></defs><title>category</title><path class="a" d="M112.39 80.5c1.67 5 5.7 4.12 10 3.84V47.42c2.13 0 2.39 0 3.78-.95a5.71 5.71 0 0 0 2.52-3.07 6 6 0 0 0 .12-3 5.4 5.4 0 0 0-1.52-3 5.45 5.45 0 0 0-4.29-1.25l-23.31-.08a5.5 5.5 0 0 0-3.69 1.5 5.41 5.41 0 0 0-1.41 2.52 6.21 6.21 0 0 0-.08 2.76c.15.9-.63 2.11.36 3.15a9 9 0 0 0 1.86 1.42v48.65c10.69.25 16.9-4.4 15.66-15.57z"/><path class="b" d="M117 195a5 5 0 0 0-.38-1c.16.29.29.63.38 1z"/><path class="a" d="M162.78 195.37c-11.9 2.28-25.43-.31-34.76-7.1-17.84-12.49-42.4 8.66-57.83-11.13l-7.7 13.79c13.31 15.82 35.51 3.17 50.4 12.47 1.71-3.42 5-5.3 4.16-8.43-.14-.35-.27-.69-.38-1a5 5 0 0 1 .38 1c2.19 5.51 7.63 12.1 14.75 10.32 0 0 3.78-3.78 1.89-5.67a45.62 45.62 0 0 0 17.84 8.26c8.72 1.85 12.12-.35 13-.95a10.42 10.42 0 0 0 2.84-3.06 10.89 10.89 0 0 0-.44-1.26 10.73 10.73 0 0 0-.6-1.22z"/><path class="c" d="M133.69 199.62c1.89 1.89-1.89 5.67-1.89 5.67-7.12 1.78-12.55-4.81-14.75-10.32.8 3.13-2.45 5-4.16 8.43-14.88-9.3-37.09 3.34-50.4-12.46l-5.84 11.14C52.94 208.5 58.52 218 65.94 218h92.95a10.8 10.8 0 0 0 7.11-4.12 11.12 11.12 0 0 0 1.5-9.62 35.08 35.08 0 0 1-33.81-4.64z"/><path class="a" d="M128 188.28c9.34 6.79 22.86 9.37 34.76 7.1l-9.29-15.91c-12.9 7.76-25.71-12.32-34.93-25.22-1.89 3.78-7.56 5.67-11.34 3.78-1.89-1.89-5.67-3.78-3.78-7.56-5.25 7-13.74 4.27-18-.67l-15.23 27.35c15.42 19.79 39.99-1.36 57.81 11.13z"/><path class="d" d="M103.43 150.46c-1.89 3.78 1.89 5.67 3.78 7.56 3.78 1.89 9.45 0 11.34-3.78 5.2 12.2 12 19 15.89 22.33 6.39 5.43 10.2 5.9 12.65 5.69a12.64 12.64 0 0 0 6.72-2.8c-10.2-17.77-19.81-35.55-30.81-53.33l-.75-7.63-3.79-.84q-2.66-.6-5.24-1.23a10.64 10.64 0 0 0-1-3.1 11.35 11.35 0 0 0-2.8-3.48 8.86 8.86 0 0 1-3.73 6c-4 2.65-8.5.49-8.69.39l-.5 9.88L85 150.75a20.14 20.14 0 0 0 5.67 5c1.78 1 2.68 1.49 3.86 1.58 4.75.33 8.53-6.19 8.9-6.87z"/><path class="b" d="M110.58 112.81a16.73 16.73 0 0 0 .42-2.06 2 2 0 0 0-.42 2.06z"/><path class="d" d="M109.2 112.81c-.2-.75.54-1.49 1.11-2.06-.11.76.09 1.44-.08 2.06.46 1.76 2.81 3.62 2.81 3.62 1.71.35 3.49.75 5.33 1.23q2 .52 3.88 1.09l-.12-34.62a10.07 10.07 0 0 1-4.87-.25 10.3 10.3 0 0 1-5.37-4 14.12 14.12 0 0 1-2.21 10.39C105.81 95.68 99.18 96 98.17 96H97v20.38c3 2.13 7.2 2.21 9.67.3a7.38 7.38 0 0 0 2.53-3.87z"/><path class="e" d="M144.6 40.09c1.06 2.89.58 6-1.19 7.51-2.49 2.2-7.8 1.61-10.68-2.77 0 .59.12 5.31-3.56 8.3s-8.52 2.46-11.86.4c-4.8-3-5.12-8.59-5.14-9.1.89 2.65 2.84 9.69-.4 16.61-.93 2-2.32 5-5.54 6.33-5.17 2.21-10.58-1.61-11.07-2a14.84 14.84 0 0 1-13.05 9.89c-8.17.43-12.85-6.42-13.05-6.72a13.84 13.84 0 0 1-19.38-17.8c-7.15.05-9.43-2.22-10.28-3.56-3.55-5.6 2.8-18.94 12.66-24.91 17.18-10.42 34.64 7.86 61.69 1.19a73 73 0 0 1 15.42-2c8.18-.2 16.66-.29 21 5.14 2.21 2.79 4 7.95 1.58 11.07-2.18 2.78-6.46 2.48-7.15 2.42z"/><path class="f" d="M59 39.61c-1.27 3.46-.69 7.12 1.42 9 3 2.63 9.32 1.93 12.76-3.31 0 .71-.14 6.35 4.25 9.93 4.24 3.45 10.18 2.95 14.18.47 5.74-3.55 6.12-10.27 6.15-10.87-1.07 3.17-3.4 11.58.47 19.85 1.11 2.38 2.77 5.92 6.62 7.56 6.18 2.64 12.64-1.93 13.24-2.36a17.74 17.74 0 0 0 15.6 11.82c9.76.52 15.36-7.68 15.6-8a16.54 16.54 0 0 0 23.16-21.27c8.54.06 11.28-2.65 12.29-4.25 4.24-6.69-3.34-22.64-15.13-29.78-20.54-12.45-41.4 9.4-73.74 1.42a87.3 87.3 0 0 0-18.44-2.36c-9.78-.24-19.92-.35-25.05 6.15-2.64 3.33-4.83 9.5-1.89 13.24C53 40 58.16 39.68 59 39.61z"/><path class="g" d="M72.37 21.95c-.8 2.19-.44 4.51.9 5.68 1.88 1.66 5.9 1.22 8.08-2.09A8 8 0 0 0 84 31.82a7.88 7.88 0 0 0 9 .3 8.87 8.87 0 0 0 3.89-6.88c-.68 2-2.15 7.33.3 12.57.7 1.5 1.75 3.75 4.19 4.79 3.91 1.67 8-1.22 8.38-1.5a11.23 11.23 0 0 0 9.87 7.48c6.18.33 9.72-4.86 9.87-5.09A10.47 10.47 0 0 0 144.17 30c5.41 0 7.14-1.68 7.78-2.69 2.68-4.23-2.12-14.33-9.57-18.85-13-7.88-26.2 5.95-46.67.9A55.25 55.25 0 0 0 84 7.89c-6.19-.15-12.61-.22-15.86 3.89-1.67 2.11-3.06 6-1.2 8.38 1.67 2.06 4.91 1.84 5.43 1.79z"/></svg>