<svg xmlns="http://www.w3.org/2000/svg" viewBox="0 0 84 84"><defs><style>.a{fill:#ced7e1}.b{fill:#e7f0fa}.c{fill:#fff}.d{fill:#aec6e0}</style></defs><title>category</title><path class="a" d="M56.62 47.24a3.29 3.29 0 0 0 .86 3.76 3 3 0 0 0 1.78.61 4.49 4.49 0 0 0 1.53 1.72 4.88 4.88 0 0 0 3.93.49 4.39 4.39 0 0 0 5.28.48 3 3 0 0 0 5-.49 2.08 2.08 0 0 0 1.35.06 2.15 2.15 0 0 0 1.29-1.17 4 4 0 0 0 4.85-1.35c.83-1.4.57-3.64-.74-4.36a2.49 2.49 0 0 0-1.84-.12 6.37 6.37 0 0 0-3.68-3.74 6.22 6.22 0 0 0-4.42.12 5.57 5.57 0 0 0-4.85-3 5.65 5.65 0 0 0-5.34 4.3 7.32 7.32 0 0 0-2.58.68 4.3 4.3 0 0 0-2.42 2.01z"/><path class="b" d="M.83 50.73C0 53.11 1.77 55.78 3.34 57c2.1 1.62 5.09 1.56 7.66-.08a3.59 3.59 0 0 0 2.14 2.28 3.06 3.06 0 0 0 3.31-1.2 6.76 6.76 0 0 0 5 1.63 6.79 6.79 0 0 0 3.9-1.87c2.68 1.29 5.49.39 6.56-1.63.95-1.79.7-4.81-.88-5.78a2.73 2.73 0 0 0-2.21-.16 8.2 8.2 0 0 0-4.42-5 6.82 6.82 0 0 0-5.3.16 6.65 6.65 0 0 0-5.82-4c-2.92 0-5.6 2.33-6.41 5.7a8.13 8.13 0 0 0-3.09.9c-1.03.63-2.46 1.35-2.95 2.78z"/><path class="c" d="M13.06 26.32c-1.58 4.7 1.81 10 4.84 12.38 4.06 3.2 9.84 3.08 14.81-.16.09.3 1.13 3.54 4.13 4.5a5.84 5.84 0 0 0 6.41-2.25A12.91 12.91 0 0 0 52.92 44a13 13 0 0 0 7.55-3.7c5.19 2.56 10.61.78 12.67-3.22 1.83-3.55 1.35-9.5-1.71-11.42a5.17 5.17 0 0 0-4.27-.32c-.28-.9-2.42-7.31-8.54-9.81a12.91 12.91 0 0 0-10.25.32C46.07 11 41.74 8 37.12 8c-5.65 0-10.83 4.6-12.39 11.26a15.44 15.44 0 0 0-6 1.77c-1.97 1.04-4.73 2.47-5.67 5.29z"/><path class="d" d="M35.63 70c-.48 1.41.56 3 1.49 3.72a3.93 3.93 0 0 0 4.55 0A2.13 2.13 0 0 0 42.94 75a1.82 1.82 0 0 0 2-.68 3.84 3.84 0 0 0 5.29-.14 2.89 2.89 0 0 0 3.89-1c.56-1.07.42-2.86-.53-3.43a1.62 1.62 0 0 0-1.31-.1 4.87 4.87 0 0 0-2.63-2.95 4.05 4.05 0 0 0-3.15.1 4 4 0 0 0-3.5-2.3 4.14 4.14 0 0 0-3.81 3.38 4.83 4.83 0 0 0-1.84.53A3.19 3.19 0 0 0 35.63 70z"/></svg>