<svg xmlns="http://www.w3.org/2000/svg" viewBox="0 0 84 84"><defs><style>.a{fill:none;stroke:#fff;stroke-miterlimit:10;stroke-width:.66px}.b{fill:#aec6e0}.c,.e,.g{fill:#fff}.c{opacity:.3}.d{fill:#e7f0fa}.f{fill:#ced7e1}.g{opacity:.9}</style></defs><title>category</title><circle class="a" cx="43.96" cy="51.85" r="21.34"/><circle class="b" cx="43.96" cy="51.85" r="21.34"/><circle class="a" cx="43.96" cy="51.85" r="15.61"/><circle class="c" cx="43.96" cy="51.85" r="15.61"/><circle class="a" cx="43.96" cy="51.85" r="9.61"/><circle class="d" cx="43.96" cy="51.85" r="9.61"/><circle class="e" cx="43.96" cy="51.85" r="5.06"/><rect class="e" x="41.89" y="16.45" width="5.14" height="70.3" rx="2.57" ry="2.57" transform="rotate(66.1 44.461 51.607)"/><path class="e" d="M39.98 77.41h7.96v5.8h-7.96z"/><path class="e" d="M41.06 72.99h5.8v5.8h-5.8zm17.558-5.837l3.164-3.833 8.058 6.653-3.164 3.833zM6.298 50.978l16.206-1.45.761 8.517L7.06 59.494zm-5.76-1.27l5.588-.5 1.08 12.082-5.587.5z"/><path class="f" d="M.307 47.287l5.588-.5.234 2.62-5.588.5zm1.296 14.267l5.588-.5.234 2.62-5.588.5z"/><circle class="b" cx="68.16" cy="16.71" r="15.54"/><circle class="b" cx="68.16" cy="16.71" r="15.54"/><circle class="a" cx="68.16" cy="16.71" r="15.54"/><circle class="e" cx="68.16" cy="16.71" r="1.9"/><path class="g" d="M76.68 11.29l.54-1.21-1.36.08-8.41 6.16.82 1.13z"/><path class="g" d="M65.31 25.65l.31 1.08.84-.8 2.1-8.64L67.4 17z"/><path class="e" d="M56.955 28.062l7.517 4.32-1.385 2.41-7.517-4.32z"/><path class="e" d="M61.46 33.07l-3.89-2.24L55.76 34l3.57 2.85z"/><circle class="b" cx="20.8" cy="16.32" r="15.54"/><circle class="b" cx="20.8" cy="16.32" r="15.54"/><circle class="a" cx="20.8" cy="16.32" r="15.54"/><circle class="e" cx="20.8" cy="16.32" r="1.9"/><path class="g" d="M12.27 10.9l-.54-1.21 1.37.08 8.41 6.16-.82 1.13z"/><path class="g" d="M23.65 25.26l-.31 1.08-.84-.8-2.1-8.64 1.16-.28z"/><path class="e" d="M33.606 29.946l-7.483 4.32-1.385-2.399 7.483-4.32z"/><path class="e" d="M27.49 32.68l3.89-2.24 1.82 3.15-3.57 2.85z"/></svg>