<svg xmlns="http://www.w3.org/2000/svg" viewBox="0 0 84 84"><defs><style>.a{fill:#aec6e0}.b{fill:#ced7e1}.c{fill:#fff}</style></defs><title>category</title><path class="a" d="M43.33 2.43l-2.48 4.32-2-4.32v79l2.22-3.81 2.22 3.81v-79z"/><path class="a" d="M8 20.26l2.36 4.15-4.59-.3 68.45 39.53L71.86 60l4.59-.21z"/><path class="a" d="M5.77 59.79l4.71-.3L8 63.64l68.45-39.52-5.45.55 3.25-4.4z"/><path class="b" d="M28.93 17.83l-2.31-.53-.32 2.05 27 46.73 2.31.66.32-2.18z"/><path class="b" d="M14.13 40.43a1.52 1.52 0 1 0 0 3h54L69.7 42l-1.62-1.52h-54z"/><path class="b" d="M26.3 64.56l.57 2.05 2.06-.53 27-46.73-.44-1.92-2.19.41z"/><circle class="c" cx="10.03" cy="60.38" r="4.27"/><circle class="c" cx="73.97" cy="23.2" r="4.27"/><circle class="c" cx="41.1" cy="42.01" r="4.27"/><circle class="c" cx="41.1" cy="78.7" r="4.27"/><circle class="c" cx="41.11" cy="5.3" r="4.27"/><circle class="c" cx="73.07" cy="60.38" r="4.27"/><circle class="c" cx="10.03" cy="23.2" r="4.27"/></svg>