<svg xmlns="http://www.w3.org/2000/svg" viewBox="0 0 223 223"><defs><style>.a{fill:#95aec4}.b{fill:#e7f0fa}.c{fill:#bdd2e5}.d{fill:#fff}</style></defs><title>category</title><path class="a" d="M48.35 114.8a76.28 76.28 0 0 1 18.82 2c33.7 1.6 43.94-7.75 77.95-1.48 18.77 3.46 28.92 8.76 44.93 5a57.13 57.13 0 0 0 25.81-14 105 105 0 0 0-209.5-1.8 219.36 219.36 0 0 0 41.06 10.28z"/><path class="b" d="M47.42 114.83a219.36 219.36 0 0 1-41.06-10.28c-.21 2.69-.34 5.4-.34 8.14a106 106 0 0 0 .67 11.71 104.23 104.23 0 0 1 40.73-9.57zm97.7.48c-34-6.27-44.25 3.08-77.95 1.48 16.42 3.85 30.14 12.55 65 19.61 28.21 5.72 41.44 4.53 51 2.59a100.88 100.88 0 0 0 32-12.6 105.85 105.85 0 0 0 .92-13.7c0-2.13-.08-4.24-.21-6.34a57.13 57.13 0 0 1-25.81 14c-16.07 3.72-26.18-1.58-44.95-5.04z"/><path class="c" d="M67.17 116.79a76.28 76.28 0 0 0-18.82-2h-.93c3.49.52 6.69.9 9.57 1.2 3.63.4 7.01.65 10.18.8z"/><path class="c" d="M132.16 136.4c-34.84-7.07-48.57-15.77-65-19.61-3.16-.15-6.54-.4-10.16-.79-2.88-.29-6.09-.68-9.57-1.2a104.23 104.23 0 0 0-40.75 9.6 104.38 104.38 0 0 0 5 22.19C25.32 154.07 38 157.24 49.21 158c36.55 2.48 47.51-21.13 84.67-17.28 18.84 1.95 24.22 8.86 47.52 8.64a120.49 120.49 0 0 0 29.45-4 104.38 104.38 0 0 0 4.29-19 100.88 100.88 0 0 1-32 12.6c-9.54 1.97-22.78 3.16-50.98-2.56z"/><path class="a" d="M181.4 149.47c-23.3.22-28.68-6.8-47.52-8.75-37.15-3.84-48.12 19.76-84.67 17.28a89.77 89.77 0 0 1-37.57-11.19A105.47 105.47 0 0 0 65.94 208c13.66 6 29 10.16 45.09 10.16s31.44-4.16 45.1-10.16c25.77-13 45.74-35 54.72-62.41a121 121 0 0 1-29.45 3.88z"/><path class="d" d="M131.3 84.17c.29-3.47-.53-6.43-5.73-16.66-3.35-6.59-8.18-15.51-14.69-25.87C104.27 52.33 99.36 61.47 96 68.16c-4.78 9.43-5.73 12.36-5.45 16 .68 8.61 8.22 20.39 20.39 20.39s19.64-11.8 20.36-20.38z"/></svg>