<svg xmlns="http://www.w3.org/2000/svg" viewBox="0 0 84 84"><defs><style>.a{fill:#aec6e0}.b{fill:#fff}.c{fill:#e7f0fa}.d{fill:#ced7e1}.e{fill:#b5c0c9}</style></defs><title>category</title><path class="a" d="M17.71 21.68v55.41a6.8 6.8 0 0 0 6.78 6.78h38.35a6.89 6.89 0 0 0 6.89-6.78V21.68h-52z"/><path class="b" d="M14.273 1.194L18.778.126l13.177 55.569-4.505 1.068z"/><path class="c" d="M27 63c13.57 4.52 36 6.83 42.75-8.17v-6.18c-14.84 6.25-35.09.62-52 2.11v11.46A17.86 17.86 0 0 1 27 63z"/><path class="d" d="M69.72 60.13v-5.27C62.93 69.86 40.54 67.56 27 63a17.86 17.86 0 0 0-9.26-.82v10.73C36.19 73 59.5 80.3 69.72 60.13z"/><path class="e" d="M17.71 72.91v4.18a6.8 6.8 0 0 0 6.78 6.78h38.35a6.89 6.89 0 0 0 6.89-6.78v-17C59.5 80.3 36.19 73 17.71 72.91z"/></svg>