<svg xmlns="http://www.w3.org/2000/svg" viewBox="0 0 223 223"><defs><style>.a{fill:#ced7e1}.b{fill:#e7f0fa}.c{fill:#fff}.d{fill:#aec6e0}</style></defs><title>category</title><path class="a" d="M150.89 125.92c-1.32 3.11-.71 7.55 2.27 9.91a8 8 0 0 0 4.71 1.62 11.87 11.87 0 0 0 4.06 4.55 12.92 12.92 0 0 0 10.4 1.3 11.63 11.63 0 0 0 14 1.3 7.83 7.83 0 0 0 13.32-1.3 5.49 5.49 0 0 0 3.57.16 5.68 5.68 0 0 0 3.41-3.09c5.16 2 10.59.23 12.84-3.57s1.5-9.62-1.95-11.54a6.59 6.59 0 0 0-4.87-.32 16.86 16.86 0 0 0-9.75-9.91 16.47 16.47 0 0 0-11.7.32 14.75 14.75 0 0 0-12.84-8 15 15 0 0 0-14.14 11.37 19.39 19.39 0 0 0-6.82 1.79c-2.61 1.27-5.29 2.49-6.51 5.41z"/><path class="b" d="M3.17 135.16c-2.16 6.3 2.48 13.38 6.63 16.59 5.56 4.29 13.48 4.12 20.28-.22.13.4 1.55 4.74 5.66 6a8.09 8.09 0 0 0 8.78-3 17.91 17.91 0 0 0 13.26 4.31 18 18 0 0 0 10.34-5c7.1 3.43 14.53 1 17.36-4.31 2.51-4.75 1.85-12.73-2.34-15.3a7.23 7.23 0 0 0-5.85-.43c-.39-1.2-3.31-9.79-11.7-13.14a18.05 18.05 0 0 0-14 .43c-3.14-6.46-9.07-10.56-15.41-10.56-7.74 0-14.83 6.16-17 15.08A21.52 21.52 0 0 0 11 128c-2.75 1.47-6.53 3.38-7.83 7.16z"/><path class="c" d="M35.53 70.53C31.36 83 40.32 97 48.35 103.31c10.75 8.48 26 8.15 39.2-.43.24.8 3 9.37 10.93 11.92 6 1.94 12.69-.39 17-6 2.19 1.92 11.94 10 25.63 8.51a34.48 34.48 0 0 0 20-9.79c13.73 6.77 28.09 2.06 33.55-8.51 4.85-9.39 3.58-25.16-4.52-30.22-4.07-2.54-8.69-1.66-11.31-.85-.75-2.38-6.4-19.35-22.62-26a34.19 34.19 0 0 0-27.14.85C122.94 30.1 111.48 22 99.24 22c-15 0-28.67 12.17-32.79 29.8a40.89 40.89 0 0 0-15.83 4.68c-5.27 2.81-12.62 6.6-15.09 14.05z"/><path class="d" d="M95.31 186.22c-1.28 3.74 1.47 7.95 3.94 9.85 3.3 2.55 8 2.45 12-.13a5.65 5.65 0 0 0 3.36 3.58 4.81 4.81 0 0 0 5.21-1.79 10.17 10.17 0 0 0 14-.38c4.22 2 8.63.62 10.31-2.56 1.49-2.82 1.1-7.56-1.39-9.09a4.29 4.29 0 0 0-3.48-.26c-.23-.72-2-5.82-7-7.81a10.72 10.72 0 0 0-8.34.26c-1.86-3.84-5.39-6.27-9.15-6.27-4.6 0-8.81 3.66-10.08 9a12.78 12.78 0 0 0-4.74 1.38c-1.62.84-3.87 2-4.64 4.22z"/></svg>