<svg xmlns="http://www.w3.org/2000/svg" viewBox="0 0 84 84"><defs><style>.a{fill:#fff}.b{fill:#ced7e1}.c{fill:#aec6e0}</style></defs><title>category</title><path class="a" d="M11.13 50.85a1.13 1.13 0 0 1-.31-.79 1.17 1.17 0 0 1 .18-.66l7.15-9.75a4.61 4.61 0 0 1-1.38.1 14.38 14.38 0 0 1-5.9-1.75 12.41 12.41 0 0 1-4.57-4.15 10.87 10.87 0 0 1-1.76-6.1 12.32 12.32 0 0 1 1.71-6.31 12.49 12.49 0 0 1 5.06-4.72 16.86 16.86 0 0 1 8-1.79 18.82 18.82 0 0 1 8.17 1.63A12 12 0 0 1 32.71 21a11.8 11.8 0 0 1 1.76 6.36 11.42 11.42 0 0 1-1.15 5.13A37.58 37.58 0 0 1 29.87 38L29 39.23l-8 10.93a2.16 2.16 0 0 1-1.84 1h-7.2a1 1 0 0 1-.83-.31zm12-19.43a4.89 4.89 0 0 0 1.46-3.73A4.85 4.85 0 0 0 23.13 24a5.19 5.19 0 0 0-3.68-1.38 5.16 5.16 0 0 0-3.7 1.38 4.89 4.89 0 0 0-1.46 3.73 4.94 4.94 0 0 0 1.43 3.73 5.15 5.15 0 0 0 3.73 1.38 5.17 5.17 0 0 0 3.71-1.42zm20.99 19.43a1.13 1.13 0 0 1-.31-.79 1.17 1.17 0 0 1 .19-.66l7.15-9.75a4.61 4.61 0 0 1-1.38.1A14.38 14.38 0 0 1 43.86 38a12.41 12.41 0 0 1-4.57-4.19 10.87 10.87 0 0 1-1.76-6.1 12.32 12.32 0 0 1 1.71-6.31 12.49 12.49 0 0 1 5.06-4.72 16.86 16.86 0 0 1 8-1.79 18.82 18.82 0 0 1 8.17 1.63A12 12 0 0 1 65.7 21a11.8 11.8 0 0 1 1.76 6.36 11.42 11.42 0 0 1-1.15 5.13A37.58 37.58 0 0 1 62.86 38l-.92 1.28-8 10.93a2.16 2.16 0 0 1-1.84 1h-7.2a1 1 0 0 1-.78-.36zm12-19.43a4.89 4.89 0 0 0 1.46-3.73A4.85 4.85 0 0 0 56.12 24a5.63 5.63 0 0 0-7.38 0 4.89 4.89 0 0 0-1.46 3.73 4.94 4.94 0 0 0 1.43 3.73 5.69 5.69 0 0 0 7.44-.04z"/><path class="b" d="M68.4 54.68a1 1 0 0 1-.23-.79l1.58-10.27a2.4 2.4 0 0 1 .56-1.25 1.65 1.65 0 0 1 1.33-.54h6.18a1 1 0 0 1 1 1 1.51 1.51 0 0 1-.1.56l-4 10.16A2 2 0 0 1 72.87 55h-3.73a.92.92 0 0 1-.74-.32z"/><path class="c" d="M5.76 71.18a.37.37 0 0 1-.1-.26.38.38 0 0 1 .07-.22l2.36-3.22a1.53 1.53 0 0 1-.46 0 4.75 4.75 0 0 1-2-.56 4.09 4.09 0 0 1-1.51-1.38 3.59 3.59 0 0 1-.58-2 4.05 4.05 0 0 1 2.23-3.64 5.55 5.55 0 0 1 2.65-.59 6.21 6.21 0 0 1 2.7.54 4 4 0 0 1 1.71 1.47 3.9 3.9 0 0 1 .58 2.1 3.78 3.78 0 0 1-.38 1.69 12.38 12.38 0 0 1-1.14 1.79l-.3.42L9 71a.71.71 0 0 1-.61.34H6a.33.33 0 0 1-.24-.16zm4-6.41a1.8 1.8 0 0 0 0-2.46 1.71 1.71 0 0 0-1.21-.46 1.7 1.7 0 0 0-1.22.46 1.83 1.83 0 0 0 0 2.46 1.7 1.7 0 0 0 1.23.46 1.7 1.7 0 0 0 1.17-.46zm6.88 6.41a.37.37 0 0 1-.1-.26.38.38 0 0 1 .07-.22L19 67.48a1.53 1.53 0 0 1-.46 0 4.75 4.75 0 0 1-2-.56A4.09 4.09 0 0 1 15 65.57a3.59 3.59 0 0 1-.58-2 4.05 4.05 0 0 1 2.23-3.64 5.55 5.55 0 0 1 2.65-.59 6.21 6.21 0 0 1 2.7.54 4 4 0 0 1 1.71 1.47 3.9 3.9 0 0 1 .58 2.1 3.78 3.78 0 0 1-.29 1.68 12.38 12.38 0 0 1-1.14 1.79l-.3.42L19.88 71a.71.71 0 0 1-.61.34H16.9a.33.33 0 0 1-.26-.16zm4-6.41a1.8 1.8 0 0 0 0-2.46 1.86 1.86 0 0 0-2.43 0 1.83 1.83 0 0 0 0 2.46 1.88 1.88 0 0 0 2.4 0zm6.89 6.41a.37.37 0 0 1-.1-.26.38.38 0 0 1 .07-.22l2.36-3.22a1.53 1.53 0 0 1-.46 0 4.75 4.75 0 0 1-2-.56 4.09 4.09 0 0 1-1.51-1.38 3.59 3.59 0 0 1-.58-2 4.05 4.05 0 0 1 2.23-3.64 5.55 5.55 0 0 1 2.65-.59 6.21 6.21 0 0 1 2.7.54 4 4 0 0 1 1.71 1.47 3.9 3.9 0 0 1 .58 2.1 3.78 3.78 0 0 1-.38 1.69 12.38 12.38 0 0 1-1.14 1.79l-.3.42-2.6 3.68a.71.71 0 0 1-.61.34h-2.37a.33.33 0 0 1-.25-.16zm4-6.41a1.8 1.8 0 0 0 0-2.46 1.86 1.86 0 0 0-2.43 0 1.83 1.83 0 0 0 0 2.46 1.88 1.88 0 0 0 2.4 0zm6.88 6.41a.37.37 0 0 1-.1-.26.38.38 0 0 1 .07-.22l2.36-3.22a1.53 1.53 0 0 1-.46 0 4.75 4.75 0 0 1-2-.56 4.09 4.09 0 0 1-1.51-1.38 3.59 3.59 0 0 1-.58-2 4.05 4.05 0 0 1 2.23-3.64 5.55 5.55 0 0 1 2.65-.59 6.21 6.21 0 0 1 2.7.54 4 4 0 0 1 1.71 1.47 3.9 3.9 0 0 1 .58 2.1 3.78 3.78 0 0 1-.38 1.69 12.38 12.38 0 0 1-1.14 1.79l-.3.42L41.65 71a.71.71 0 0 1-.61.34h-2.37a.33.33 0 0 1-.26-.16zm4-6.41a1.8 1.8 0 0 0 0-2.46 1.86 1.86 0 0 0-2.43 0 1.83 1.83 0 0 0 0 2.46 1.88 1.88 0 0 0 2.4 0zm6.89 6.41a.37.37 0 0 1-.1-.26.38.38 0 0 1 .07-.22l2.36-3.22a1.53 1.53 0 0 1-.46 0 4.75 4.75 0 0 1-2-.56 4.09 4.09 0 0 1-1.51-1.38 3.59 3.59 0 0 1-.58-2 4.05 4.05 0 0 1 2.23-3.64 5.55 5.55 0 0 1 2.69-.58 6.21 6.21 0 0 1 2.7.54 4 4 0 0 1 1.71 1.47 3.9 3.9 0 0 1 .58 2.1 3.78 3.78 0 0 1-.38 1.69 12.38 12.38 0 0 1-1.14 1.79l-.3.42L52.54 71a.71.71 0 0 1-.61.34h-2.38a.33.33 0 0 1-.25-.16zm4-6.41a1.8 1.8 0 0 0 0-2.46 1.86 1.86 0 0 0-2.43 0 1.83 1.83 0 0 0 0 2.46 1.88 1.88 0 0 0 2.4 0zm6.89 6.41a.37.37 0 0 1-.1-.26.38.38 0 0 1 .07-.22l2.36-3.22a1.53 1.53 0 0 1-.46 0 4.75 4.75 0 0 1-2-.56 4.09 4.09 0 0 1-1.51-1.38 3.59 3.59 0 0 1-.58-2 4.05 4.05 0 0 1 2.23-3.64 5.55 5.55 0 0 1 2.65-.59 6.21 6.21 0 0 1 2.7.54 4 4 0 0 1 1.71 1.47 3.9 3.9 0 0 1 .58 2.1 3.78 3.78 0 0 1-.38 1.69 12.38 12.38 0 0 1-1.14 1.79l-.3.42-2.6 3.68a.71.71 0 0 1-.61.34h-2.37a.33.33 0 0 1-.25-.16zm4-6.41a1.8 1.8 0 0 0 0-2.46 1.86 1.86 0 0 0-2.43 0 1.83 1.83 0 0 0 0 2.46 1.88 1.88 0 0 0 2.39 0z"/></svg>