<svg xmlns="http://www.w3.org/2000/svg" viewBox="0 0 223 223"><defs><style>.a{fill:none;stroke:#fff;stroke-miterlimit:10;stroke-width:1.65px}.b{fill:#aec6e0}.c,.e,.g{fill:#fff}.c{opacity:.3}.d{fill:#e7f0fa}.f{fill:#ced7e1}.g{opacity:.9}</style></defs><title>category</title><circle class="a" cx="114.66" cy="136.25" r="53.03"/><circle class="b" cx="114.66" cy="136.25" r="53.03"/><circle class="a" cx="114.66" cy="136.25" r="38.79"/><circle class="c" cx="114.66" cy="136.25" r="38.79"/><circle class="a" cx="114.66" cy="136.25" r="23.88"/><circle class="d" cx="114.66" cy="136.25" r="23.88"/><circle class="e" cx="114.66" cy="136.25" r="12.57"/><rect class="e" x="109.51" y="48.31" width="12.77" height="174.68" rx="6.38" ry="6.38" transform="rotate(66.1 115.891 135.653)"/><path class="e" d="M104.78 199.78h19.77v14.41h-19.77z"/><path class="e" d="M107.46 188.8h14.41v14.41h-14.41zm43.635-14.52l7.856-9.517 20.028 16.533-7.856 9.517zM21.094 134.118l40.279-3.602 1.893 21.166-40.28 3.602zM6.789 130.93l13.894-1.242 2.685 30.02-13.895 1.243z"/><path class="f" d="M6.185 124.922l13.894-1.243.583 6.514-13.895 1.243zm3.235 35.451l13.894-1.243.582 6.514-13.894 1.243z"/><circle class="b" cx="174.78" cy="48.95" r="38.61"/><circle class="b" cx="174.78" cy="48.95" r="38.61"/><circle class="a" cx="174.78" cy="48.95" r="38.61"/><circle class="e" cx="174.78" cy="48.95" r="4.73"/><path class="g" d="M196 35.47l1.34-3-3.39.21L173 48l2 2.8z"/><path class="g" d="M167.7 71.15l.78 2.69 2.1-2 5.21-21.47-2.87-.7z"/><path class="e" d="M146.946 77.173l18.67 10.73-3.434 5.976-18.67-10.73z"/><path class="e" d="M158.15 89.6l-9.66-5.6-4.49 7.86 8.85 7.14z"/><circle class="b" cx="57.11" cy="47.99" r="38.61"/><circle class="b" cx="57.11" cy="47.99" r="38.61"/><circle class="a" cx="57.11" cy="47.99" r="38.61"/><circle class="e" cx="57.11" cy="47.99" r="4.73"/><path class="g" d="M35.92 34.51l-1.34-3 3.42.2L58.87 47l-2 2.8z"/><path class="g" d="M64.19 70.18l-.78 2.69-2.1-2-5.2-21.46 2.87-.7z"/><path class="e" d="M88.948 81.834l-18.585 10.73-3.435-5.95 18.585-10.73z"/><path class="e" d="M73.74 88.63l9.66-5.58 4.52 7.84L79 98z"/></svg>