<svg xmlns="http://www.w3.org/2000/svg" viewBox="0 0 84 84"><defs><style>.a{fill:#aec6e0}.b{fill:#e7f0fa}.c{fill:#ced7e1}</style></defs><title>category</title><rect class="a" x="30.28" y="13.15" width="24.11" height="69.69" rx="7.93" ry="7.93"/><path class="b" d="M46.46 12H38.2c-4.36 0-8.2 4.72-8.2 9.08V37h24V21.08c0-4.36-3.18-9.08-7.54-9.08z"/><path class="c" d="M40.35 4.3h3.96v8.75h-3.96z"/><path class="b" d="M38.04 1.16h8.59V4.3h-8.59z"/><rect class="a" x="58.02" y="22.93" width="16.84" height="48.68" rx="5.54" ry="5.54"/><path class="c" d="M69.32 23h-5.76A5.51 5.51 0 0 0 58 28.46V39h16V28.46c0-3.04-1.63-5.46-4.68-5.46zm-4.26-6.26h2.77v6.11h-2.77z"/><path class="b" d="M63.44 14.55h6v2.19h-6z"/><rect class="a" x="9.14" y="22.93" width="16.84" height="48.68" rx="5.54" ry="5.54"/><path class="c" d="M20.44 23h-5.76A5.61 5.61 0 0 0 9 28.46V39h16V28.46c0-3.04-1.51-5.46-4.56-5.46zm-4.26-6.26h2.77v6.11h-2.77z"/><path class="b" d="M14.56 14.55h6v2.19h-6z"/></svg>