<svg xmlns="http://www.w3.org/2000/svg" viewBox="0 0 223 223"><defs><style>.a{fill:#aec6e0}.b,.d,.f,.g,.h{fill:#fff}.b{stroke:#fff;stroke-miterlimit:10;stroke-width:1.33px}.c{fill:#ced7e1}.d{opacity:.93}.e{fill:#e7f0fa}.f{opacity:.58}.g{opacity:.44}</style></defs><title>category</title><path class="a" d="M19.19 181.23l14 5.6 18.05-10 87.15 4 33.3 5 2.18-19.61 14-17.74-12.44-15.18 16.5 2.18 1.56-18.67-14.63-15.87-8.71-8.4.3-35.54-24.9-23.3-18.67 1.56L115 34 96.68 44.91l-17 .31c-2.07 4.88-4.51 9.75-6.38 14.63l-4.3 14-11.2 4-.33 14.68 5.91 3.73-2.49 5-7.47.62.94-6.88q-10.94 6.88-22 14-9.19 5.92-18.19 11.83 6.69 13.38 13.4 26.77l-15.24 15.27z"/><path class="b" d="M200.86 100.14l-78.43 31.33"/><path class="c" d="M128.5 109.88a8 8 0 1 0-4.5 10.37 8 8 0 0 0 4.5-10.37z"/><path class="d" d="M126.61 110.63a5.94 5.94 0 1 0-3.32 7.73 5.94 5.94 0 0 0 3.32-7.73zm-9.38 3.75a4.16 4.16 0 1 1 5.4 2.32 4.16 4.16 0 0 1-5.4-2.32z"/><path class="e" d="M92.093 107.194l11.868 29.718-19.688 7.862-11.868-29.718z"/><path class="c" d="M75.94 141.84L68.4 123l4-7.9 11.87 29.71z"/><path class="e" d="M69.21 124.355l6.335 15.862-17.757 7.091-6.334-15.862z"/><path class="f" d="M61 147.78l-3.84-2 17.75-7.09 1.21 3z"/><path class="c" d="M53.48 128.88L52.07 133l17.75-7.09-1.21-3z"/><path class="g" d="M99.809 117.144l.43 1.077-3.232 1.29-.43-1.076zm2.46 6.142l.43 1.077-3.232 1.29-.43-1.077zm-.572-3.719l.701 1.755-4.03 1.61-.701-1.756z"/><path class="h" d="M71.467 110.159l-.43 4.138-.885-.092.43-4.138z"/><path class="h" d="M70.66 113.14v-1.16a1.59 1.59 0 0 0-1-.15c-1 .26-1.33 1.78-1.19 3.29a10.26 10.26 0 0 0 1.92 4.8l.59-.24a9.07 9.07 0 0 1-1.77-4.13c-.11-1 0-2.58.78-2.68a1.16 1.16 0 0 1 .67.27zm15.673 36.368l-3.163-2.703.579-.676 3.162 2.703z"/><path class="h" d="M84.26 147.19l.78.9a1.58 1.58 0 0 1-.65.84c-.88.49-2.2-.41-3.16-1.62a10.76 10.76 0 0 1-2-4.92l.59-.24a9.5 9.5 0 0 0 1.6 4.31c.64.85 1.8 1.92 2.43 1.45a1.17 1.17 0 0 0 .41-.72z"/><path class="b" d="M209.41 80.21l-1.83-4.57a15.38 15.38 0 0 0-19.93-8.55l-78.43 31.32a15.38 15.38 0 0 0-8.55 19.93l1.83 4.57a15.38 15.38 0 0 0 19.93 8.55l78.43-31.33a15.38 15.38 0 0 0 8.55-19.92zm-80.56 30.54l-.35-.88a8 8 0 1 1-10.38-4.45 8 8 0 0 1 10.38 4.45l-.35-.88z"/></svg>