<svg xmlns="http://www.w3.org/2000/svg" viewBox="0 0 223 223"><defs><style>.a{fill:#aec6e0}.b{fill:#95aec4}.c{fill:#bdd2e5}.d{fill:#fff}.e{fill:#ced7e1}</style></defs><title>category</title><path class="a" d="M35.17 24H71c.39 0 2.55-5.27-.25-10.09A9.59 9.59 0 0 0 67 10.35c-3-1.87-5.25-1.12-13.7-1.22-9.02-.13-11.45-.78-14.4 1.21a10 10 0 0 0-3.49 3.54C32.9 18.7 34.7 24 35.17 24z"/><path class="b" d="M33.18 164.8q0 14.69.07 29.39A21.49 21.49 0 0 0 54.61 216h114.95a21.87 21.87 0 0 0 21.81-21.81v-48.12c-45.58 2.89-92.73 1.22-138.12 13.6-6.25 1.39-13.4 2.8-20.07 5.13z"/><path class="a" d="M175.92 86.52c-2 1.34-6-.79-13-5.7-42.89 4.13-88.83 1.73-130 11.08l.18 72.92c6.67-2.33 13.77-3.74 20.06-5.14 45.39-12.38 92.54-10.71 138.12-13.6V85.7a85.88 85.88 0 0 0-.87-8.61 124.74 124.74 0 0 1-12.41 2.1c.06 3.69-.63 6.36-2.08 7.33z"/><path class="c" d="M157.29 22.45c-5.29-3.4-21.14-13.25-42.14-10C90.86 16.22 77.89 34.67 75.62 38l-3.52-4.64-38.62-.11-.61 3.75.13 54.89c41.12-9.35 87.06-6.95 130-11.08-2.88-2-6.25-4.53-10.21-7.47-18.32-13.59-18.57-17.92-28.4-22.49-18.63-8.66-34.53-.89-36.12-5.68S100.79 29 116.85 26.09c19.22-3.46 33.64 7.34 37.48 10.22 15.88 11.89 23.3 31.93 23.67 42.88a124.74 124.74 0 0 0 12.54-2.11 83.71 83.71 0 0 0-9.92-28.73C177 42.07 170.54 31 157.29 22.45z"/><path class="d" d="M133.24 151c.3-3.59-.55-6.66-5.94-17.26-3.47-6.83-8.48-16.08-15.22-26.81a373.29 373.29 0 0 0-15.45 27.49c-5 9.77-5.94 12.81-5.64 16.58.71 8.92 8.52 21.13 21.13 21.13s20.38-12.2 21.12-21.13z"/><path class="e" d="M34.11 24.08h37.77v9.28H34.11z"/></svg>