<svg xmlns="http://www.w3.org/2000/svg" viewBox="0 0 223 223"><defs><style>.a{fill:#aec6e0}.b{fill:#ced7e1}.c{fill:#e7f0fa}</style></defs><title>category</title><rect class="a" x="153.99" y="63.13" width="44.03" height="127.28" rx="14.48" ry="14.48"/><path class="b" d="M185 63h-15.84A14.25 14.25 0 0 0 154 77.61V105h44V77.61c0-7.96-4.69-14.61-13-14.61z"/><path class="b" d="M172.38 46.96h7.24v15.98h-7.24z"/><path class="c" d="M168.16 41.23h15.68v5.73h-15.68z"/><rect class="a" x="26.2" y="63.13" width="44.03" height="127.28" rx="14.48" ry="14.48"/><path class="b" d="M57.35 63H41.46A14.51 14.51 0 0 0 26 77.61V105h44V77.61C70 69.65 65.73 63 57.35 63z"/><path class="b" d="M44.6 46.96h7.24v15.98H44.6z"/><path class="c" d="M40.38 41.23h15.68v5.73H40.38z"/><rect class="a" x="81.46" y="37.59" width="63.03" height="182.18" rx="20.72" ry="20.72"/><path class="c" d="M124.34 35h-21.87C90.92 35 81 46.91 81 58.31V100h63V58.31c0-11.4-8.11-23.31-19.66-23.31z"/><path class="b" d="M107.8 14.44h10.36V35H107.8z"/><path class="c" d="M101.75 6.23h22.45v8.2h-22.45z"/></svg>