<svg xmlns="http://www.w3.org/2000/svg" viewBox="0 0 223 223"><defs><style>.a{fill:#aec6e0}.b{fill:#e7f0fa}.c{fill:#ced7e1}.d,.h,.i{fill:none;stroke:#fff;stroke-miterlimit:10}.d{stroke-width:.53px}.e,.f,.g{fill:#fff}.f{opacity:.9}.g{opacity:.2}.h{stroke-width:2.52px}.i{stroke-width:1.11px}</style></defs><title>category</title><rect class="a" x="106.28" y="48.48" width="56.51" height="163.33" rx="18.58" ry="18.58" transform="rotate(21.88 134.561 130.163)"/><path class="b" d="M175.57 56.12l-18.34-7.37c-9.68-3.89-22 2.68-25.79 12.16L117.51 95.6l52.82 21.22 13.93-34.68c3.81-9.49 1-22.14-8.69-26.02z"/><path class="c" d="M165.352 30.106l19.116 7.676-7.811 19.45-19.116-7.676z"/><path class="c" d="M177.956 14.241l9.984 4.01-7.248 18.049-9.985-4.01zm3.856 27.003l11.495 4.574-1.584 3.98-11.494-4.573z"/><rect class="c" x="191.76" y="38.64" width="3.31" height="20.96" rx="1.65" ry="1.65" transform="rotate(21.88 193.44 49.121)"/><circle class="a" cx="147.18" cy="28.92" r="12.36" transform="rotate(-85.46 147.185 28.915)"/><circle class="d" cx="147.18" cy="28.92" r="12.36" transform="rotate(-85.46 147.185 28.915)"/><circle class="e" cx="147.18" cy="28.92" r="1.51" transform="rotate(-85.46 147.185 28.915)"/><path class="f" d="M143.42 21.82l-.92-.5v1.09l4.36 7.06.94-.58z"/><path class="f" d="M154.08 31.74l.88-.18-.58-.72-6.72-2.2-.3.9z"/><circle class="g" cx="147.18" cy="28.92" r="12.36" transform="rotate(-85.46 147.185 28.915)"/><path class="e" d="M155.371 38.693l3.895-5.66 1.812 1.248-3.895 5.66z"/><path class="c" d="M157.71 32.87l-1.25 3.34 6.49 2.43 2.48-2.91z"/><path class="b" d="M105.51 45.47L24.39 68.11l31.88 114.24 63.55-17.74a7.74 7.74 0 0 0 2.22-1.05c1.83-1.13 2.73-2.44 7.22-10 1.62-2.74-.19.3 1.73-3.07a14.23 14.23 0 0 0 1.82-3.77A8.27 8.27 0 0 0 133 144z"/><path class="h" d="M105.51 45.47L24.39 68.11l31.88 114.24 63.55-17.74a7.74 7.74 0 0 0 2.22-1.05c1.83-1.13 2.73-2.44 7.22-10 1.62-2.74-.19.3 1.73-3.07a14.23 14.23 0 0 0 1.82-3.77A8.27 8.27 0 0 0 133 144z"/><path class="e" d="M120.2 164.5a11.28 11.28 0 0 0 1.3-.51c3-1.37 3.89-3.39 8.41-10.93 1.16-1.93 3.14-4.68 3.09-8.15a10.51 10.51 0 0 0-.12-1.46c.45 3-.84 5.56-2.73 6.19a3.75 3.75 0 0 1-2.69-.21 30.28 30.28 0 0 1-1.49 7c-.89 2.61-1.75 5-4.06 6.91a10.23 10.23 0 0 1-1.71 1.16zm-70.223-55.578L104.78 93.62l.992 3.554-54.804 15.302zm2.051 7.333l54.804-15.302.347 1.243-54.804 15.301zm.934 3.336l54.804-15.301.347 1.242-54.804 15.302zm.931 3.338l54.804-15.302.347 1.243-54.804 15.3zm.924 3.337l54.804-15.302.347 1.242-54.804 15.302zm.892 2.891l54.624-15.363.348 1.239-54.624 15.363zm.973 3.783l54.804-15.302.347 1.243-54.804 15.301z"/><path class="i" d="M99 153.26a10.94 10.94 0 0 0 5.29-4.07c4-6.07.12-15.64-2.38-15.73-1.54-.06-3.77 3.44-3.58 6.75.4 7 11.47 8.47 12.1 15.52.4 4.45-3.55 9-5 8.67-1.05-.27-1.44-3.49-1-6.13 1.1-7.26 7.87-8.76 8.1-15.3.07-2-.45-4.68-1.45-4.87-.73-.14-1.62 1.06-2 2-1.69 3.94 2.35 10 4.43 9.7 1.53-.24 2-3.93 3.26-3.79.66.07.74 1.14 1.43 1.33s2-.61 4.33-4.76"/><path class="a" d="M42.14 147l-4 2.56 29.7 46.59 2.16.55 1.53-.87.32-2.29z"/><path class="a" d="M35 131.52l5.35 8.39c-.69 1.42-.25 2.78-1 3.29l-3.47 2.21c-.84.54-3 .25-3.42-.45l-5.35-8.39c.43 3.17.58 6.59.93 9.81l8.52 5 7.92-5-.83-9.87c-2.85-1.71-5.93-3.27-8.65-4.99z"/><path class="e" d="M72 73.14a8.78 8.78 0 1 0 8.78 8.78A8.78 8.78 0 0 0 72 73.14zm0 15.77a7 7 0 1 1 7-7 7 7 0 0 1-7 7z"/><circle class="e" cx="71.97" cy="81.92" r="1.97"/><rect class="e" x="71.47" y="74.93" width="1.01" height="13.97" rx=".51" ry=".51"/><rect class="e" x="71.47" y="74.93" width="1.01" height="13.97" rx=".51" ry=".51" transform="rotate(-45 71.975 81.927)"/><rect class="e" x="71.46" y="74.93" width="1.01" height="13.97" rx=".51" ry=".51" transform="rotate(90 71.97 81.92)"/><rect class="e" x="71.46" y="74.93" width="1.01" height="13.97" rx=".51" ry=".51" transform="rotate(45 71.976 81.924)"/></svg>